<svg width="326" height="53" viewBox="0 0 326 53" fill="none" xmlns="http://www.w3.org/2000/svg">
<path d="M4.19531 13.6914H0.75V10.4648H4.19531V4.58594H13.1094V0.949219H18.6875V4.58594H23.582C25.0039 4.58594 26.043 4.91406 26.6992 5.57031C27.3555 6.22656 27.6836 7.26562 27.6836 8.6875V10.4648H31.8398V13.6914H27.6836V19.625H18.6875V22.1953H25.168C26.5898 22.1953 27.6289 22.5234 28.2852 23.1797C28.9414 23.8359 29.2695 24.875 29.2695 26.2969V32.2305H2.66406V22.1953H13.1094V19.625H4.19531V13.6914ZM18.6875 10.4648H22.5977V7.56641H18.6875V10.4648ZM18.6875 13.6914V16.6445H22.5977V13.6914H18.6875ZM13.1094 13.6914H9.28125V16.6445H13.1094V13.6914ZM13.1094 10.4648V7.56641H9.28125V10.4648H13.1094ZM13.1094 25.4219H7.99609V29.0039H13.1094V25.4219ZM18.6875 29.0039H23.9375V25.4219H18.6875V29.0039ZM34.3555 23.5352C33.3711 24.9753 31.9948 26.5521 30.2266 28.2656V23.3984C31.3021 21.3932 32.0221 19.862 32.3867 18.8047C33.681 15.1042 34.556 10.6471 35.0117 5.43359C35.1211 4.13932 35.2396 2.65365 35.3672 0.976562H41.1641C40.763 4.78646 40.3711 7.75781 39.9883 9.89062H52.8398V14.2383H50.2148C49.9961 24.9023 48.1641 33.1784 44.7188 39.0664C46.6146 42.0378 49.3854 45.0091 53.0312 47.9805V52.4648C49.75 50.4414 47.2799 48.6641 45.6211 47.1328C44.4544 46.0573 43.2331 44.6992 41.957 43.0586C40.207 45.1367 38.4297 46.8594 36.625 48.2266C35.1484 49.3568 32.9701 50.7148 30.0898 52.3008V48.0078C32.6237 46.3672 34.638 44.763 36.1328 43.1953C37.1536 42.1198 38.2018 40.7435 39.2773 39.0664C36.8346 34.6914 35.2122 29.651 34.4102 23.9453L34.3555 23.5352ZM37.0078 19.1328H39.2227C39.4414 24.9115 40.3346 29.7513 41.9023 33.6523C43.0872 30.2617 43.8802 26.9167 44.2812 23.6172C44.5 21.8854 44.6732 19.3516 44.8008 16.0156L44.8828 14.2383H38.9766C38.4844 15.8242 37.8281 17.4557 37.0078 19.1328ZM21.75 45.1641C23.974 45.7656 26.4076 46.4492 29.0508 47.2148V52.082C26.1159 51.0065 23.582 50.0677 21.4492 49.2656L17.3477 47.707C13.3555 49.5664 7.98698 51.0339 1.24219 52.1094V48.8008C5.39844 48.1081 9.01693 47.1237 12.0977 45.8477C9.69141 45.0456 6.78385 44.0977 3.375 43.0039C4.8151 41.3451 5.94531 39.9232 6.76562 38.7383H1.10547V35.0195H8.92578C9.10807 34.6185 9.38151 33.9714 9.74609 33.0781H16.2539C15.8346 33.8984 15.4792 34.5456 15.1875 35.0195H28.3398V38.4375C26.4622 41.099 24.2656 43.3411 21.75 45.1641ZM16.3086 43.6875C18.1497 42.5755 19.9818 40.9258 21.8047 38.7383H12.2617C11.4961 39.5404 10.4479 40.543 9.11719 41.7461L11.6602 42.4297L12.6719 42.7031L16.3086 43.6875ZM113.264 11.2305H77.8266V18.0664H71.6195V6.88281H92.5648C92.5466 6.64583 92.5193 6.26302 92.4828 5.73438C92.4099 4.45833 92.1547 2.86328 91.7172 0.949219H97.5961C97.6872 1.13151 97.8331 1.39583 98.0336 1.74219C98.6716 2.92708 99.3005 4.64062 99.9203 6.88281H115.205C116.682 6.88281 117.758 7.22005 118.432 7.89453C119.125 8.58724 119.471 9.67188 119.471 11.1484V18.0664H113.264V11.2305ZM99.893 31.082H120.647V35.4297H99.893V46.5586C99.893 48.7096 99.2276 50.1589 97.8969 50.9062C96.9307 51.4349 95.2901 51.6992 92.975 51.6992H84.6898L83.2133 47.3516H92.8383V35.4297H70.6625V31.082H92.8383V26.543L102.162 21.375H80.2875V17.0273H111.077V21.4023L99.893 28.1016V31.082ZM149.407 33.6797C146.6 35.8125 143.045 37.9818 138.743 40.1875V35.8398C145.233 31.6107 149.99 27.0078 153.016 22.0312H140.055V17.9297H155.204C155.805 16.526 156.252 15.4141 156.544 14.5938H144.622V10.7383H157.665L157.938 9.5625L158.184 8.44141L158.403 7.42969H143.2V3.32812H176.86C178.428 3.32812 179.348 2.80859 179.622 1.76953H185.473C184.89 3.70182 184.279 5.04167 183.641 5.78906C182.73 6.88281 181.235 7.42969 179.157 7.42969H165.512C165.294 8.3776 165.029 9.48047 164.72 10.7383H185.473V14.5938H163.598C163.197 15.7422 162.76 16.8542 162.286 17.9297H189.001V22.0312H160.235C159.524 23.2344 158.74 24.4102 157.884 25.5586H179.13C180.114 25.5586 180.807 25.6315 181.208 25.7773C182.302 26.1966 183.058 26.9805 183.477 28.1289C183.641 28.5846 183.723 29.3594 183.723 30.4531V50.8516H168.63V50.8789H149.407V33.6797ZM155.833 43.3594V47.0234H162.942V46.9961H177.27V29.4141H155.833V32.7773H175.192L176.833 36.3867H155.833V39.75H175.192L176.833 43.3594H155.833ZM220.331 22.6055C217.961 23.8451 214.872 25.0208 211.062 26.1328V22.3867C214.799 20.9466 217.761 19.1875 219.948 17.1094C221.826 15.3411 223.43 13.1263 224.761 10.4648H232.198C231.251 12.1602 230.594 13.2812 230.23 13.8281H247.784V18.0938C244.868 21.375 241.504 24.2734 237.695 26.7891C242.197 28.5208 249.006 29.9883 258.12 31.1914V34.9648C247.165 33.7982 238.661 32.0026 232.609 29.5781C231.114 30.2708 229.683 30.8451 228.316 31.3008C225.909 32.1211 222.027 33.0326 216.667 34.0352H245.843C247.52 34.0352 248.751 34.4271 249.534 35.2109C250.318 35.9766 250.71 37.2161 250.71 38.9297V50.7969H215.218V34.2812C213.559 34.5547 210.907 34.9284 207.261 35.4023V31.4648C216.23 30.1706 222.792 28.6302 226.948 26.8438C224.287 25.3672 222.081 23.9544 220.331 22.6055ZM223.585 20.6367H226.593C228.471 22.0221 230.303 23.207 232.089 24.1914C234.732 22.569 237.266 20.5638 239.691 18.1758H226.675C225.928 18.8867 224.898 19.707 223.585 20.6367ZM221.671 46.4492H244.257V38.3828H221.671V46.4492ZM215.136 9.45312V17.2461H208.929V5.10547H229.437C229.309 3.73828 229.063 2.35286 228.698 0.949219H234.167C234.404 1.45964 234.769 2.08854 235.261 2.83594C235.589 3.3099 235.99 4.06641 236.464 5.10547H252.515C253.991 5.10547 255.067 5.46094 255.741 6.17188C256.434 6.88281 256.78 8.02214 256.78 9.58984V17.2461H250.573V9.45312H215.136ZM300.087 30.8906L299.65 31.1367C296.496 32.9779 292.851 34.5273 288.712 35.7852C285.978 36.6055 282.524 37.4167 278.349 38.2188V34.8555C286.388 32.7956 293.097 29.806 298.474 25.8867C298.091 25.3398 297.49 24.7109 296.67 24C291.365 26.1328 285.304 27.7279 278.486 28.7852V25.3945C286.087 23.681 292.076 21.3021 296.451 18.2578H285.13V13.9102H317.314V18.2578H305.802C304.125 19.6615 302.503 20.8555 300.935 21.8398C302.065 22.6602 302.813 23.2617 303.177 23.6445C304.526 25.0482 305.52 26.862 306.158 29.0859C308.017 28.138 309.53 27.1536 310.697 26.1328C312.192 24.8385 313.641 23.0794 315.045 20.8555H322.4C320.067 24.6654 317.223 27.6003 313.869 29.6602C314.634 31.8112 315.509 33.7253 316.494 35.4023C318.408 38.6654 321.525 41.8008 325.845 44.8086V48.8281C320.869 46.5495 317.186 44.1797 314.798 41.7188C312.702 39.5859 310.742 36.5872 308.92 32.7227L308.646 32.1211C307.716 32.4492 307.124 32.6497 306.869 32.7227C307.106 35.1107 307.224 38.1003 307.224 41.6914C307.224 46.0664 306.486 48.8737 305.009 50.1133C303.752 51.1888 301.865 51.7266 299.349 51.7266H291.802L290.681 47.4062H297.627C298.647 47.4062 299.367 47.1693 299.787 46.6953C300.498 45.8932 300.78 43.8333 300.634 40.5156C300.634 40.4245 300.625 40.2969 300.607 40.1328C300.242 40.3698 299.942 40.543 299.705 40.6523C293.634 43.7513 286.087 46.194 277.064 47.9805V44.5625C286.507 42.0651 294.309 38.5742 300.47 34.0898C300.379 32.7956 300.252 31.7292 300.087 30.8906ZM283.545 10.1094V17.2461H277.337V5.76172H298.009C297.9 4.30339 297.617 2.74479 297.162 1.08594H303.068C303.323 1.63281 303.66 2.31641 304.08 3.13672C304.462 3.84766 304.818 4.72266 305.146 5.76172H320.896C322.373 5.76172 323.457 6.09896 324.15 6.77344C324.824 7.46615 325.162 8.55078 325.162 10.0273V17.2461H318.955V10.1094H283.545Z" fill="black"/>
</svg>
