<svg width="678" height="63" viewBox="0 0 678 63" fill="none" xmlns="http://www.w3.org/2000/svg">
<path d="M27.4805 22.5156C27.043 23.4089 26.6237 24.1745 26.2227 24.8125C24.6185 27.3099 22.5677 29.4154 20.0703 31.1289C19.3229 31.6576 18.4479 32.2318 17.4453 32.8516V28.3125C19.724 25.888 21.4284 22.9349 22.5586 19.4531C23.1602 17.612 23.7435 14.7956 24.3086 11.0039H30.8438C30.4427 13.7747 29.9141 16.1628 29.2578 18.168H47.6602C49.2279 18.168 50.3763 18.5417 51.1055 19.2891C51.8346 20.0365 52.1992 21.2305 52.1992 22.8711V31.9492H45.9648V22.5156H27.4805ZM8.09375 33.6445C6.48958 35.0482 4.44792 36.4792 1.96875 37.9375V33.043C4.72135 30.582 6.92708 27.6562 8.58594 24.2656C10.4089 20.5104 11.6029 16.1263 12.168 11.1133H18.5117C18.056 14.2669 17.5911 16.7461 17.1172 18.5508C16.4609 21.0664 15.5221 23.4727 14.3008 25.7695V62.4648H8.09375V33.6445ZM25.457 61.7266L24.3906 57.3789H32.3477V25.3594H38.5273V57.707C38.5273 60.3867 37.1419 61.7266 34.3711 61.7266H25.457ZM41.125 33.2617H45.1445C48.7539 39.6966 51.4974 46.5508 53.375 53.8242H47.0039C45.9284 47.6263 43.9688 40.7721 41.125 33.2617ZM16.7344 55.0547L16.6797 51.1172C18.5026 49.0573 19.8698 46.9062 20.7812 44.6641C22.0208 41.5833 22.7227 37.7643 22.8867 33.207H28.6836C28.5378 36.2878 28.2096 38.8307 27.6992 40.8359C27.207 42.8229 26.4049 44.8099 25.293 46.7969C23.5247 49.9323 20.6719 52.6849 16.7344 55.0547ZM80.5766 25.2227H90.8852C92.1612 25.2227 93.0909 25.5143 93.6742 26.0977C94.2576 26.681 94.5492 27.6107 94.5492 28.8867V34.1367V43.3242H80.2211C79.893 46.5508 79.3917 49.1576 78.7172 51.1445C77.2224 55.5924 74.4971 59.3568 70.5414 62.4375V57.8711C71.6352 56.1211 72.4281 54.4167 72.9203 52.7578C73.5219 50.6797 73.8956 48.6107 74.0414 46.5508C74.2602 43.6706 74.3695 40.2344 74.3695 36.2422V13.9844H87.768C88.9711 13.9844 89.6911 13.401 89.9281 12.2344H96.2445C95.9164 14.2578 95.4516 15.6706 94.85 16.4727C93.9203 17.7122 92.2797 18.332 89.9281 18.332H80.5766V25.2227ZM80.5766 29.5703V35.5586C80.5766 36.7435 80.5583 37.8828 80.5219 38.9766H88.5883V35.0117V29.5703H80.5766ZM103.737 32.8242V35.6953C103.737 43.224 102.725 48.9388 100.702 52.8398C98.7693 56.5586 95.6521 59.7669 91.35 62.4648V57.8984C93.1182 56.1484 94.3396 54.5807 95.0141 53.1953C95.8344 51.4453 96.4268 49.668 96.7914 47.8633C97.2836 45.4935 97.5297 41.6654 97.5297 36.3789V13.9844H112.842C114.027 13.9844 114.756 13.401 115.03 12.2344H121.264C120.918 14.2578 120.444 15.6706 119.842 16.4727C118.912 17.7122 117.272 18.332 114.92 18.332H103.737V28.4766H122.577V32.8242H116.78V62.3281H110.573V32.8242H103.737ZM168.29 21.8867V26.7812H173.02C177.359 30.4818 180.877 33.9544 183.575 37.1992C185.635 39.6784 187.886 42.9049 190.329 46.8789H182.317C179.601 40.7904 175.299 34.5378 169.411 28.1211L168.29 26.8906V62.4375H160.989V33.4531C159.768 34.8568 158.51 36.1693 157.216 37.3906C154.153 40.2526 150.352 42.9596 145.813 45.5117C144.519 46.2409 142.614 47.2344 140.098 48.4922V44.1172C147.955 39.0677 153.57 33.7539 156.942 28.1758C159.002 24.7852 160.634 21.3307 161.837 17.8125H141.247V13.4648H189.563V17.8125H169.794C169.666 18.1589 169.484 18.6875 169.247 19.3984C168.992 20.1094 168.673 20.9388 168.29 21.8867ZM216.847 22.3516C215.844 24.0469 214.869 25.4505 213.921 26.5625C212.554 28.1667 210.64 29.7526 208.179 31.3203V27.3555C209.546 25.8242 210.53 24.5026 211.132 23.3906C212.517 20.8932 213.52 17.9948 214.14 14.6953C214.34 13.6198 214.559 12.3802 214.796 10.9766H220.648C220.192 13.4375 219.59 15.7799 218.843 18.0039H233.089V22.3516H225.378V29.0234C225.378 30.2083 225.342 31.6302 225.269 33.2891H234.347V37.6367H224.968C224.895 38.3477 224.786 39.2318 224.64 40.2891H224.804C227.265 44.2083 229.261 47.7721 230.792 50.9805C232.141 53.8607 233.435 57.1602 234.675 60.8789H227.976C227.01 55.7747 225.843 51.5 224.476 48.0547C224.202 47.3255 223.865 46.4961 223.464 45.5664C222.935 47.1159 222.343 48.4466 221.687 49.5586C220.119 52.2201 218.333 54.4987 216.327 56.3945C214.322 58.2904 211.624 60.2682 208.234 62.3281V57.707C211.023 55.556 212.991 53.7969 214.14 52.4297C216.655 49.4219 218.251 46.0404 218.925 42.2852C219.126 41.1914 219.29 39.6419 219.417 37.6367H208.863V33.2891H219.609C219.645 31.1016 219.663 29.6068 219.663 28.8047V22.3516H216.847ZM235.823 60.25V14.8867H252.667C254.271 14.8867 255.447 15.2695 256.195 16.0352C256.96 16.819 257.343 18.0586 257.343 19.7539V60.25H235.823ZM241.784 55.9023H251.382V19.2344H241.784V55.9023ZM304.314 24.9492L305.654 21.3398H291.572V16.9922H299.064C298.864 14.8047 298.462 12.8086 297.861 11.0039H302.728C303.749 12.444 304.688 14.2214 305.545 16.3359L305.818 16.9922H311.943C313.201 15.5521 314.34 13.5469 315.361 10.9766H320.201C320.073 12.8724 319.672 14.8776 318.998 16.9922H327.119V21.3398H311.861L310.603 24.9492H318.888C320.657 24.9492 321.923 25.3776 322.689 26.2344C323.309 26.9271 323.619 28.0391 323.619 29.5703V53.25H294.962V24.9492H304.314ZM301.142 49.1484H317.412V29.0508H301.142V33.2344H315.252L316.755 36.9531H301.142V41H315.252L316.755 44.7188H301.142V49.1484ZM282.521 51.6367V31.9492H276.806V27.6016H284.162C285.729 27.6016 286.887 27.9661 287.634 28.6953C288.364 29.4062 288.728 30.5638 288.728 32.168V51.9648C289.093 52.2201 290.059 53.0221 291.627 54.3711C293.212 55.7383 295.391 56.4219 298.162 56.4219H328.459V60.7695H298.736C295.673 60.7695 293.34 60.4414 291.736 59.7852C290.569 59.3112 289.102 58.2721 287.334 56.668C286.714 56.1029 286.203 55.8203 285.802 55.8203C284.745 55.8203 284.052 57.5339 283.724 60.9609H276.67C277.563 58.5729 278.283 56.8503 278.83 55.793C279.395 54.7539 280.097 53.7513 280.935 52.7852C281.336 52.3294 281.865 51.9466 282.521 51.6367ZM279.978 12.3438H284.599C286.714 15.8802 288.446 19.8268 289.795 24.1836H283.041C282.84 21.7773 282.357 19.3073 281.591 16.7734C281.409 16.1172 281.063 15.1693 280.552 13.9297C280.388 13.5651 280.197 13.0365 279.978 12.3438ZM347.402 60.4414V19.4531H362.633C364.401 19.4531 365.686 19.8451 366.488 20.6289C367.29 21.4128 367.691 22.6432 367.691 24.3203V60.4414H347.402ZM353.363 56.0938H361.73V23.8008H353.363V36.3242H360.5L361.512 40.6719H353.363V56.0938ZM377.426 23.0898C377.098 23.8555 376.751 24.5573 376.387 25.1953C375.457 26.7995 374.482 28.1576 373.461 29.2695C372.385 30.4362 370.645 31.8945 368.238 33.6445V29.625C369.605 27.8932 370.699 25.9792 371.52 23.8828C372.759 20.7474 373.68 16.4727 374.281 11.0586H380.68C380.297 13.6289 379.741 16.1901 379.012 18.7422H389.621C391.316 18.7422 392.547 19.125 393.312 19.8906C394.096 20.6745 394.488 21.9141 394.488 23.6094V56.2305C394.488 59.2018 392.939 60.6875 389.84 60.6875H376.359L375.184 56.3398H388.281V23.0898H377.426ZM360.281 11.0039C359.898 14.431 359.525 16.9648 359.16 18.6055H352.133C353.409 16.4544 354.402 13.9206 355.113 11.0039H360.281ZM373.406 31.1016H377.617C380.898 36.4427 383.305 41.8294 384.836 47.2617H378.219C377.234 41.7201 375.63 36.3333 373.406 31.1016ZM427.077 32.6055C424.707 33.8451 421.617 35.0208 417.807 36.1328V32.3867C421.544 30.9466 424.506 29.1875 426.694 27.1094C428.571 25.3411 430.176 23.1263 431.506 20.4648H438.944C437.996 22.1602 437.34 23.2812 436.975 23.8281H454.53V28.0938C451.613 31.375 448.25 34.2734 444.44 36.7891C448.942 38.5208 455.751 39.9883 464.866 41.1914V44.9648C453.91 43.7982 445.406 42.0026 439.354 39.5781C437.859 40.2708 436.428 40.8451 435.061 41.3008C432.655 42.1211 428.772 43.0326 423.413 44.0352H452.588C454.265 44.0352 455.496 44.4271 456.28 45.2109C457.064 45.9766 457.455 47.2161 457.455 48.9297V60.7969H421.963V44.2812C420.304 44.5547 417.652 44.9284 414.006 45.4023V41.4648C422.975 40.1706 429.538 38.6302 433.694 36.8438C431.032 35.3672 428.827 33.9544 427.077 32.6055ZM430.33 30.6367H433.338C435.216 32.0221 437.048 33.207 438.834 34.1914C441.478 32.569 444.011 30.5638 446.436 28.1758H433.42C432.673 28.8867 431.643 29.707 430.33 30.6367ZM428.416 56.4492H451.002V48.3828H428.416V56.4492ZM421.881 19.4531V27.2461H415.674V15.1055H436.182C436.054 13.7383 435.808 12.3529 435.444 10.9492H440.913C441.149 11.4596 441.514 12.0885 442.006 12.8359C442.334 13.3099 442.735 14.0664 443.209 15.1055H459.26C460.737 15.1055 461.812 15.4609 462.487 16.1719C463.179 16.8828 463.526 18.0221 463.526 19.5898V27.2461H457.319V19.4531H421.881ZM506.833 40.8906L506.395 41.1367C503.242 42.9779 499.596 44.5273 495.458 45.7852C492.723 46.6055 489.269 47.4167 485.095 48.2188V44.8555C493.134 42.7956 499.842 39.806 505.22 35.8867C504.837 35.3398 504.235 34.7109 503.415 34C498.11 36.1328 492.049 37.7279 485.231 38.7852V35.3945C492.833 33.681 498.821 31.3021 503.196 28.2578H491.876V23.9102H524.059V28.2578H512.548C510.871 29.6615 509.248 30.8555 507.68 31.8398C508.811 32.6602 509.558 33.2617 509.923 33.6445C511.272 35.0482 512.265 36.862 512.903 39.0859C514.763 38.138 516.276 37.1536 517.442 36.1328C518.937 34.8385 520.386 33.0794 521.79 30.8555H529.145C526.812 34.6654 523.968 37.6003 520.614 39.6602C521.38 41.8112 522.255 43.7253 523.239 45.4023C525.153 48.6654 528.27 51.8008 532.591 54.8086V58.8281C527.614 56.5495 523.932 54.1797 521.544 51.7188C519.447 49.5859 517.488 46.5872 515.665 42.7227L515.391 42.1211C514.462 42.4492 513.869 42.6497 513.614 42.7227C513.851 45.1107 513.97 48.1003 513.97 51.6914C513.97 56.0664 513.231 58.8737 511.755 60.1133C510.497 61.1888 508.61 61.7266 506.095 61.7266H498.548L497.427 57.4062H504.372C505.393 57.4062 506.113 57.1693 506.532 56.6953C507.243 55.8932 507.526 53.8333 507.38 50.5156C507.38 50.4245 507.371 50.2969 507.352 50.1328C506.988 50.3698 506.687 50.543 506.45 50.6523C500.38 53.7513 492.833 56.194 483.809 57.9805V54.5625C493.252 52.0651 501.054 48.5742 507.216 44.0898C507.124 42.7956 506.997 41.7292 506.833 40.8906ZM490.29 20.1094V27.2461H484.083V15.7617H504.755C504.645 14.3034 504.363 12.7448 503.907 11.0859H509.813C510.069 11.6328 510.406 12.3164 510.825 13.1367C511.208 13.8477 511.563 14.7227 511.891 15.7617H527.641C529.118 15.7617 530.203 16.099 530.895 16.7734C531.57 17.4661 531.907 18.5508 531.907 20.0273V27.2461H525.7V20.1094H490.29ZM567.202 52.293V58.7461H560.749V52.293H567.202ZM567.066 15.5703V34.6289L565.644 47.3438H562.28L560.859 34.6289V15.5703H567.066Z" fill="black"/>
</svg>
