<svg width="678" height="63" viewBox="0 0 678 63" fill="none" xmlns="http://www.w3.org/2000/svg">
<path d="M5.19531 23.6914H1.75V20.4648H5.19531V14.5859H14.1094V10.9492H19.6875V14.5859H24.582C26.0039 14.5859 27.043 14.9141 27.6992 15.5703C28.3555 16.2266 28.6836 17.2656 28.6836 18.6875V20.4648H32.8398V23.6914H28.6836V29.625H19.6875V32.1953H26.168C27.5898 32.1953 28.6289 32.5234 29.2852 33.1797C29.9414 33.8359 30.2695 34.875 30.2695 36.2969V42.2305H3.66406V32.1953H14.1094V29.625H5.19531V23.6914ZM19.6875 20.4648H23.5977V17.5664H19.6875V20.4648ZM19.6875 23.6914V26.6445H23.5977V23.6914H19.6875ZM14.1094 23.6914H10.2812V26.6445H14.1094V23.6914ZM14.1094 20.4648V17.5664H10.2812V20.4648H14.1094ZM14.1094 35.4219H8.99609V39.0039H14.1094V35.4219ZM19.6875 39.0039H24.9375V35.4219H19.6875V39.0039ZM35.3555 33.5352C34.3711 34.9753 32.9948 36.5521 31.2266 38.2656V33.3984C32.3021 31.3932 33.0221 29.862 33.3867 28.8047C34.681 25.1042 35.556 20.6471 36.0117 15.4336C36.1211 14.1393 36.2396 12.6536 36.3672 10.9766H42.1641C41.763 14.7865 41.3711 17.7578 40.9883 19.8906H53.8398V24.2383H51.2148C50.9961 34.9023 49.1641 43.1784 45.7188 49.0664C47.6146 52.0378 50.3854 55.0091 54.0312 57.9805V62.4648C50.75 60.4414 48.2799 58.6641 46.6211 57.1328C45.4544 56.0573 44.2331 54.6992 42.957 53.0586C41.207 55.1367 39.4297 56.8594 37.625 58.2266C36.1484 59.3568 33.9701 60.7148 31.0898 62.3008V58.0078C33.6237 56.3672 35.638 54.763 37.1328 53.1953C38.1536 52.1198 39.2018 50.7435 40.2773 49.0664C37.8346 44.6914 36.2122 39.651 35.4102 33.9453L35.3555 33.5352ZM38.0078 29.1328H40.2227C40.4414 34.9115 41.3346 39.7513 42.9023 43.6523C44.0872 40.2617 44.8802 36.9167 45.2812 33.6172C45.5 31.8854 45.6732 29.3516 45.8008 26.0156L45.8828 24.2383H39.9766C39.4844 25.8242 38.8281 27.4557 38.0078 29.1328ZM22.75 55.1641C24.974 55.7656 27.4076 56.4492 30.0508 57.2148V62.082C27.1159 61.0065 24.582 60.0677 22.4492 59.2656L18.3477 57.707C14.3555 59.5664 8.98698 61.0339 2.24219 62.1094V58.8008C6.39844 58.1081 10.0169 57.1237 13.0977 55.8477C10.6914 55.0456 7.78385 54.0977 4.375 53.0039C5.8151 51.3451 6.94531 49.9232 7.76562 48.7383H2.10547V45.0195H9.92578C10.1081 44.6185 10.3815 43.9714 10.7461 43.0781H17.2539C16.8346 43.8984 16.4792 44.5456 16.1875 45.0195H29.3398V48.4375C27.4622 51.099 25.2656 53.3411 22.75 55.1641ZM17.3086 53.6875C19.1497 52.5755 20.9818 50.9258 22.8047 48.7383H13.2617C12.4961 49.5404 11.4479 50.543 10.1172 51.7461L12.6602 52.4297L13.6719 52.7031L17.3086 53.6875ZM114.264 21.2305H78.8266V28.0664H72.6195V16.8828H93.5648C93.5466 16.6458 93.5193 16.263 93.4828 15.7344C93.4099 14.4583 93.1547 12.8633 92.7172 10.9492H98.5961C98.6872 11.1315 98.8331 11.3958 99.0336 11.7422C99.6716 12.9271 100.301 14.6406 100.92 16.8828H116.205C117.682 16.8828 118.758 17.2201 119.432 17.8945C120.125 18.5872 120.471 19.6719 120.471 21.1484V28.0664H114.264V21.2305ZM100.893 41.082H121.647V45.4297H100.893V56.5586C100.893 58.7096 100.228 60.1589 98.8969 60.9062C97.9307 61.4349 96.2901 61.6992 93.975 61.6992H85.6898L84.2133 57.3516H93.8383V45.4297H71.6625V41.082H93.8383V36.543L103.162 31.375H81.2875V27.0273H112.077V31.4023L100.893 38.1016V41.082ZM150.407 43.6797C147.6 45.8125 144.045 47.9818 139.743 50.1875V45.8398C146.233 41.6107 150.99 37.0078 154.016 32.0312H141.055V27.9297H156.204C156.805 26.526 157.252 25.4141 157.544 24.5938H145.622V20.7383H158.665L158.938 19.5625L159.184 18.4414L159.403 17.4297H144.2V13.3281H177.86C179.428 13.3281 180.348 12.8086 180.622 11.7695H186.473C185.89 13.7018 185.279 15.0417 184.641 15.7891C183.73 16.8828 182.235 17.4297 180.157 17.4297H166.512C166.294 18.3776 166.029 19.4805 165.72 20.7383H186.473V24.5938H164.598C164.197 25.7422 163.76 26.8542 163.286 27.9297H190.001V32.0312H161.235C160.524 33.2344 159.74 34.4102 158.884 35.5586H180.13C181.114 35.5586 181.807 35.6315 182.208 35.7773C183.302 36.1966 184.058 36.9805 184.477 38.1289C184.641 38.5846 184.723 39.3594 184.723 40.4531V60.8516H169.63V60.8789H150.407V43.6797ZM156.833 53.3594V57.0234H163.942V56.9961H178.27V39.4141H156.833V42.7773H176.192L177.833 46.3867H156.833V49.75H176.192L177.833 53.3594H156.833ZM221.331 32.6055C218.961 33.8451 215.872 35.0208 212.062 36.1328V32.3867C215.799 30.9466 218.761 29.1875 220.948 27.1094C222.826 25.3411 224.43 23.1263 225.761 20.4648H233.198C232.251 22.1602 231.594 23.2812 231.23 23.8281H248.784V28.0938C245.868 31.375 242.504 34.2734 238.695 36.7891C243.197 38.5208 250.006 39.9883 259.12 41.1914V44.9648C248.165 43.7982 239.661 42.0026 233.609 39.5781C232.114 40.2708 230.683 40.8451 229.316 41.3008C226.909 42.1211 223.027 43.0326 217.667 44.0352H246.843C248.52 44.0352 249.751 44.4271 250.534 45.2109C251.318 45.9766 251.71 47.2161 251.71 48.9297V60.7969H216.218V44.2812C214.559 44.5547 211.907 44.9284 208.261 45.4023V41.4648C217.23 40.1706 223.792 38.6302 227.948 36.8438C225.287 35.3672 223.081 33.9544 221.331 32.6055ZM224.585 30.6367H227.593C229.471 32.0221 231.303 33.207 233.089 34.1914C235.732 32.569 238.266 30.5638 240.691 28.1758H227.675C226.928 28.8867 225.898 29.707 224.585 30.6367ZM222.671 56.4492H245.257V48.3828H222.671V56.4492ZM216.136 19.4531V27.2461H209.929V15.1055H230.437C230.309 13.7383 230.063 12.3529 229.698 10.9492H235.167C235.404 11.4596 235.769 12.0885 236.261 12.8359C236.589 13.3099 236.99 14.0664 237.464 15.1055H253.515C254.991 15.1055 256.067 15.4609 256.741 16.1719C257.434 16.8828 257.78 18.0221 257.78 19.5898V27.2461H251.573V19.4531H216.136ZM301.087 40.8906L300.65 41.1367C297.496 42.9779 293.851 44.5273 289.712 45.7852C286.978 46.6055 283.524 47.4167 279.349 48.2188V44.8555C287.388 42.7956 294.097 39.806 299.474 35.8867C299.091 35.3398 298.49 34.7109 297.67 34C292.365 36.1328 286.304 37.7279 279.486 38.7852V35.3945C287.087 33.681 293.076 31.3021 297.451 28.2578H286.13V23.9102H318.314V28.2578H306.802C305.125 29.6615 303.503 30.8555 301.935 31.8398C303.065 32.6602 303.813 33.2617 304.177 33.6445C305.526 35.0482 306.52 36.862 307.158 39.0859C309.017 38.138 310.53 37.1536 311.697 36.1328C313.192 34.8385 314.641 33.0794 316.045 30.8555H323.4C321.067 34.6654 318.223 37.6003 314.869 39.6602C315.634 41.8112 316.509 43.7253 317.494 45.4023C319.408 48.6654 322.525 51.8008 326.845 54.8086V58.8281C321.869 56.5495 318.186 54.1797 315.798 51.7188C313.702 49.5859 311.742 46.5872 309.92 42.7227L309.646 42.1211C308.716 42.4492 308.124 42.6497 307.869 42.7227C308.106 45.1107 308.224 48.1003 308.224 51.6914C308.224 56.0664 307.486 58.8737 306.009 60.1133C304.752 61.1888 302.865 61.7266 300.349 61.7266H292.802L291.681 57.4062H298.627C299.647 57.4062 300.367 57.1693 300.787 56.6953C301.498 55.8932 301.78 53.8333 301.634 50.5156C301.634 50.4245 301.625 50.2969 301.607 50.1328C301.242 50.3698 300.942 50.543 300.705 50.6523C294.634 53.7513 287.087 56.194 278.064 57.9805V54.5625C287.507 52.0651 295.309 48.5742 301.47 44.0898C301.379 42.7956 301.252 41.7292 301.087 40.8906ZM284.545 20.1094V27.2461H278.337V15.7617H299.009C298.9 14.3034 298.617 12.7448 298.162 11.0859H304.068C304.323 11.6328 304.66 12.3164 305.08 13.1367C305.462 13.8477 305.818 14.7227 306.146 15.7617H321.896C323.373 15.7617 324.457 16.099 325.15 16.7734C325.824 17.4661 326.162 18.5508 326.162 20.0273V27.2461H319.955V20.1094H284.545Z" fill="black"/>
</svg>
