<svg width="181" height="351" viewBox="0 0 181 351" fill="none" xmlns="http://www.w3.org/2000/svg">
<path d="M9.44 307.211V319.151H10.44V307.211H9.44ZM4.22 310.491H15.94V312.611H4.22V310.491ZM4.22 307.591H15.94V309.671H4.22V307.591ZM3.28 306.751V313.451H16.9V306.751H3.28ZM1.2 315.271V316.171H18.82V315.271H1.2ZM3.76 302.531H8.18V304.851H3.76V302.531ZM2.86 301.791V305.611H9.1V301.791H2.86ZM11.88 302.531H16.36V304.851H11.88V302.531ZM10.98 301.791V305.611H17.3V301.791H10.98ZM27.44 304.791V305.731H38.16V304.791H27.44ZM28.84 307.491C29.5 310.331 30.14 314.111 30.3 316.231L31.28 315.951C31.06 313.891 30.42 310.191 29.74 307.291L28.84 307.491ZM35.68 307.091C35.24 310.191 34.34 314.811 33.54 317.551L34.4 317.771C35.2 315.011 36.12 310.551 36.7 307.271L35.68 307.091ZM26.52 317.371V318.311H39.06V317.371H26.52ZM31.58 301.191C31.98 302.211 32.38 303.531 32.56 304.391L33.5 304.091C33.32 303.251 32.86 301.951 32.48 300.931L31.58 301.191ZM26.04 301.071C24.84 304.211 22.9 307.311 20.82 309.311C21.02 309.511 21.34 309.991 21.44 310.211C23.6 307.991 25.64 304.731 26.96 301.331L26.04 301.071ZM23.84 305.991V319.131H24.8V305.071L24.78 305.051L23.84 305.991ZM45 307.771C45.66 307.771 46.26 307.311 46.26 306.511C46.26 305.691 45.66 305.231 45 305.231C44.32 305.231 43.72 305.691 43.72 306.511C43.72 307.311 44.32 307.771 45 307.771ZM45 317.711C45.66 317.711 46.26 317.251 46.26 316.431C46.26 315.631 45.66 315.151 45 315.151C44.32 315.151 43.72 315.631 43.72 316.431C43.72 317.251 44.32 317.711 45 317.711ZM64 311.991C65.96 311.991 67.18 310.351 67.18 307.391C67.18 304.471 65.96 302.831 64 302.831C62.06 302.831 60.86 304.471 60.86 307.391C60.86 310.351 62.06 311.991 64 311.991ZM64 311.191C62.68 311.191 61.82 309.831 61.82 307.391C61.82 304.951 62.68 303.631 64 303.631C65.34 303.631 66.2 304.951 66.2 307.391C66.2 309.831 65.34 311.191 64 311.191ZM64.4 317.951H65.34L73.44 302.831H72.52L64.4 317.951ZM73.92 317.951C75.84 317.951 77.06 316.291 77.06 313.331C77.06 310.431 75.84 308.791 73.92 308.791C71.96 308.791 70.74 310.431 70.74 313.331C70.74 316.291 71.96 317.951 73.92 317.951ZM73.92 317.131C72.58 317.131 71.7 315.771 71.7 313.331C71.7 310.891 72.58 309.591 73.92 309.591C75.22 309.591 76.1 310.891 76.1 313.331C76.1 315.771 75.22 317.131 73.92 317.131Z" fill="black"/>
<path d="M70.665 11.2705L69.0918 11.3936C68.9512 10.7725 68.752 10.3213 68.4941 10.04C68.0664 9.58887 67.5391 9.36328 66.9121 9.36328C66.4082 9.36328 65.9658 9.50391 65.585 9.78516C65.0869 10.1484 64.6943 10.6787 64.4072 11.376C64.1201 12.0732 63.9707 13.0664 63.959 14.3555C64.3398 13.7754 64.8057 13.3447 65.3564 13.0635C65.9072 12.7822 66.4844 12.6416 67.0879 12.6416C68.1426 12.6416 69.0391 13.0312 69.7773 13.8105C70.5215 14.584 70.8936 15.5859 70.8936 16.8164C70.8936 17.625 70.7178 18.3779 70.3662 19.0752C70.0205 19.7666 69.543 20.2969 68.9336 20.666C68.3242 21.0352 67.6328 21.2197 66.8594 21.2197C65.541 21.2197 64.4658 20.7363 63.6338 19.7695C62.8018 18.7969 62.3857 17.1973 62.3857 14.9707C62.3857 12.4805 62.8457 10.6699 63.7656 9.53906C64.5684 8.55469 65.6494 8.0625 67.0088 8.0625C68.0225 8.0625 68.8516 8.34668 69.4961 8.91504C70.1465 9.4834 70.5361 10.2686 70.665 11.2705ZM64.2051 16.8252C64.2051 17.3701 64.3193 17.8916 64.5479 18.3896C64.7822 18.8877 65.1074 19.2686 65.5234 19.5322C65.9395 19.79 66.376 19.9189 66.833 19.9189C67.501 19.9189 68.0752 19.6494 68.5557 19.1104C69.0361 18.5713 69.2764 17.8389 69.2764 16.9131C69.2764 16.0225 69.0391 15.3223 68.5645 14.8125C68.0898 14.2969 67.4922 14.0391 66.7715 14.0391C66.0566 14.0391 65.4502 14.2969 64.9521 14.8125C64.4541 15.3223 64.2051 15.9932 64.2051 16.8252ZM72.4756 14.6455C72.4756 13.1221 72.6309 11.8975 72.9414 10.9717C73.2578 10.04 73.7236 9.32227 74.3389 8.81836C74.96 8.31445 75.7393 8.0625 76.6768 8.0625C77.3682 8.0625 77.9746 8.20312 78.4961 8.48438C79.0176 8.75977 79.4482 9.16113 79.7881 9.68848C80.1279 10.21 80.3945 10.8486 80.5879 11.6045C80.7812 12.3545 80.8779 13.3682 80.8779 14.6455C80.8779 16.1572 80.7227 17.3789 80.4121 18.3105C80.1016 19.2363 79.6357 19.9541 79.0146 20.4639C78.3994 20.9678 77.6201 21.2197 76.6768 21.2197C75.4346 21.2197 74.459 20.7744 73.75 19.8838C72.9004 18.8115 72.4756 17.0654 72.4756 14.6455ZM74.1016 14.6455C74.1016 16.7607 74.3477 18.1699 74.8398 18.873C75.3379 19.5703 75.9502 19.9189 76.6768 19.9189C77.4033 19.9189 78.0127 19.5674 78.5049 18.8643C79.0029 18.1611 79.252 16.7549 79.252 14.6455C79.252 12.5244 79.0029 11.1152 78.5049 10.418C78.0127 9.7207 77.3975 9.37207 76.6592 9.37207C75.9326 9.37207 75.3525 9.67969 74.9189 10.2949C74.374 11.0801 74.1016 12.5303 74.1016 14.6455ZM82.5127 16.1045V14.3027C83.1338 13.5996 83.9482 13.248 84.9561 13.248C85.3076 13.248 85.6768 13.3008 86.0635 13.4062C86.4502 13.5059 87.001 13.708 87.7158 14.0127C88.1201 14.1826 88.4219 14.2939 88.6211 14.3467C88.8262 14.3994 89.0312 14.4258 89.2363 14.4258C89.6172 14.4258 90.0098 14.3115 90.4141 14.083C90.8242 13.8545 91.1875 13.5674 91.5039 13.2217V15.085C91.1289 15.4365 90.748 15.6914 90.3613 15.8496C89.9805 16.0078 89.5498 16.0869 89.0693 16.0869C88.7178 16.0869 88.3809 16.0459 88.0586 15.9639C87.7422 15.8818 87.2354 15.6855 86.5381 15.375C85.8467 15.0645 85.2695 14.9092 84.8066 14.9092C84.4316 14.9092 84.0771 14.9912 83.7432 15.1553C83.415 15.3135 83.0049 15.6299 82.5127 16.1045Z" fill="black"/>
<path d="M62.4648 57.0923L64.0469 56.8813C64.2285 57.7778 64.5361 58.4253 64.9697 58.8237C65.4092 59.2163 65.9424 59.4126 66.5693 59.4126C67.3135 59.4126 67.9404 59.1548 68.4502 58.6392C68.9658 58.1235 69.2236 57.4849 69.2236 56.7231C69.2236 55.9966 68.9863 55.3989 68.5117 54.9302C68.0371 54.4556 67.4336 54.2183 66.7012 54.2183C66.4023 54.2183 66.0303 54.2769 65.585 54.394L65.7607 53.0054C65.8662 53.0171 65.9512 53.0229 66.0156 53.0229C66.6895 53.0229 67.2959 52.8472 67.835 52.4956C68.374 52.144 68.6436 51.6021 68.6436 50.8696C68.6436 50.2896 68.4473 49.8091 68.0547 49.4282C67.6621 49.0474 67.1553 48.8569 66.5342 48.8569C65.9189 48.8569 65.4062 49.0503 64.9961 49.437C64.5859 49.8237 64.3223 50.4038 64.2051 51.1772L62.623 50.896C62.8164 49.8354 63.2559 49.0151 63.9414 48.4351C64.627 47.8491 65.4795 47.5562 66.499 47.5562C67.2021 47.5562 67.8496 47.7085 68.4414 48.0132C69.0332 48.312 69.4844 48.7222 69.7949 49.2437C70.1113 49.7651 70.2695 50.3188 70.2695 50.9048C70.2695 51.4614 70.1201 51.9683 69.8213 52.4253C69.5225 52.8823 69.0801 53.2456 68.4941 53.5151C69.2559 53.6909 69.8477 54.0571 70.2695 54.6138C70.6914 55.1646 70.9023 55.856 70.9023 56.688C70.9023 57.813 70.4922 58.7681 69.6719 59.5532C68.8516 60.3325 67.8145 60.7222 66.5605 60.7222C65.4297 60.7222 64.4893 60.3853 63.7393 59.7114C62.9951 59.0376 62.5703 58.1646 62.4648 57.0923ZM72.4756 54.1392C72.4756 52.6157 72.6309 51.3911 72.9414 50.4653C73.2578 49.5337 73.7236 48.8159 74.3389 48.312C74.96 47.8081 75.7393 47.5562 76.6768 47.5562C77.3682 47.5562 77.9746 47.6968 78.4961 47.978C79.0176 48.2534 79.4482 48.6548 79.7881 49.1821C80.1279 49.7036 80.3945 50.3423 80.5879 51.0981C80.7812 51.8481 80.8779 52.8618 80.8779 54.1392C80.8779 55.6509 80.7227 56.8726 80.4121 57.8042C80.1016 58.73 79.6357 59.4478 79.0146 59.9575C78.3994 60.4614 77.6201 60.7134 76.6768 60.7134C75.4346 60.7134 74.459 60.2681 73.75 59.3774C72.9004 58.3052 72.4756 56.5591 72.4756 54.1392ZM74.1016 54.1392C74.1016 56.2544 74.3477 57.6636 74.8398 58.3667C75.3379 59.064 75.9502 59.4126 76.6768 59.4126C77.4033 59.4126 78.0127 59.061 78.5049 58.3579C79.0029 57.6548 79.252 56.2485 79.252 54.1392C79.252 52.0181 79.0029 50.6089 78.5049 49.9116C78.0127 49.2144 77.3975 48.8657 76.6592 48.8657C75.9326 48.8657 75.3525 49.1733 74.9189 49.7886C74.374 50.5737 74.1016 52.0239 74.1016 54.1392ZM82.5127 55.5981V53.7964C83.1338 53.0933 83.9482 52.7417 84.9561 52.7417C85.3076 52.7417 85.6768 52.7944 86.0635 52.8999C86.4502 52.9995 87.001 53.2017 87.7158 53.5063C88.1201 53.6763 88.4219 53.7876 88.6211 53.8403C88.8262 53.8931 89.0312 53.9194 89.2363 53.9194C89.6172 53.9194 90.0098 53.8052 90.4141 53.5767C90.8242 53.3481 91.1875 53.061 91.5039 52.7153V54.5786C91.1289 54.9302 90.748 55.1851 90.3613 55.3433C89.9805 55.5015 89.5498 55.5806 89.0693 55.5806C88.7178 55.5806 88.3809 55.5396 88.0586 55.4575C87.7422 55.3755 87.2354 55.1792 86.5381 54.8687C85.8467 54.5581 85.2695 54.4028 84.8066 54.4028C84.4316 54.4028 84.0771 54.4849 83.7432 54.6489C83.415 54.8071 83.0049 55.1235 82.5127 55.5981ZM101.216 50.7642L99.6426 50.8872C99.502 50.2661 99.3027 49.8149 99.0449 49.5337C98.6172 49.0825 98.0898 48.8569 97.4629 48.8569C96.959 48.8569 96.5166 48.9976 96.1357 49.2788C95.6377 49.6421 95.2451 50.1724 94.958 50.8696C94.6709 51.5669 94.5215 52.5601 94.5098 53.8491C94.8906 53.269 95.3564 52.8384 95.9072 52.5571C96.458 52.2759 97.0352 52.1353 97.6387 52.1353C98.6934 52.1353 99.5898 52.5249 100.328 53.3042C101.072 54.0776 101.444 55.0796 101.444 56.3101C101.444 57.1187 101.269 57.8716 100.917 58.5688C100.571 59.2603 100.094 59.7905 99.4844 60.1597C98.875 60.5288 98.1836 60.7134 97.4102 60.7134C96.0918 60.7134 95.0166 60.23 94.1846 59.2632C93.3525 58.2905 92.9365 56.6909 92.9365 54.4644C92.9365 51.9741 93.3965 50.1636 94.3164 49.0327C95.1191 48.0483 96.2002 47.5562 97.5596 47.5562C98.5732 47.5562 99.4023 47.8403 100.047 48.4087C100.697 48.9771 101.087 49.7622 101.216 50.7642ZM94.7559 56.3188C94.7559 56.8638 94.8701 57.3853 95.0986 57.8833C95.333 58.3813 95.6582 58.7622 96.0742 59.0259C96.4902 59.2837 96.9268 59.4126 97.3838 59.4126C98.0518 59.4126 98.626 59.1431 99.1064 58.604C99.5869 58.0649 99.8271 57.3325 99.8271 56.4067C99.8271 55.5161 99.5898 54.8159 99.1152 54.3062C98.6406 53.7905 98.043 53.5327 97.3223 53.5327C96.6074 53.5327 96.001 53.7905 95.5029 54.3062C95.0049 54.8159 94.7559 55.4868 94.7559 56.3188ZM103.026 54.1392C103.026 52.6157 103.182 51.3911 103.492 50.4653C103.809 49.5337 104.274 48.8159 104.89 48.312C105.511 47.8081 106.29 47.5562 107.228 47.5562C107.919 47.5562 108.525 47.6968 109.047 47.978C109.568 48.2534 109.999 48.6548 110.339 49.1821C110.679 49.7036 110.945 50.3423 111.139 51.0981C111.332 51.8481 111.429 52.8618 111.429 54.1392C111.429 55.6509 111.273 56.8726 110.963 57.8042C110.652 58.73 110.187 59.4478 109.565 59.9575C108.95 60.4614 108.171 60.7134 107.228 60.7134C105.985 60.7134 105.01 60.2681 104.301 59.3774C103.451 58.3052 103.026 56.5591 103.026 54.1392ZM104.652 54.1392C104.652 56.2544 104.898 57.6636 105.391 58.3667C105.889 59.064 106.501 59.4126 107.228 59.4126C107.954 59.4126 108.563 59.061 109.056 58.3579C109.554 57.6548 109.803 56.2485 109.803 54.1392C109.803 52.0181 109.554 50.6089 109.056 49.9116C108.563 49.2144 107.948 48.8657 107.21 48.8657C106.483 48.8657 105.903 49.1733 105.47 49.7886C104.925 50.5737 104.652 52.0239 104.652 54.1392Z" fill="black"/>
<path d="M70.7705 98.4668V99.9873H62.2539C62.2422 99.6064 62.3037 99.2402 62.4385 98.8887C62.6553 98.3086 63.001 97.7373 63.4756 97.1748C63.9561 96.6123 64.6475 95.9619 65.5498 95.2236C66.9502 94.0752 67.8965 93.167 68.3887 92.499C68.8809 91.8252 69.127 91.1895 69.127 90.5918C69.127 89.9648 68.9014 89.4375 68.4502 89.0098C68.0049 88.5762 67.4219 88.3594 66.7012 88.3594C65.9395 88.3594 65.3301 88.5879 64.873 89.0449C64.416 89.502 64.1846 90.1348 64.1787 90.9434L62.5527 90.7764C62.6641 89.5635 63.083 88.6406 63.8096 88.0078C64.5361 87.3691 65.5117 87.0498 66.7363 87.0498C67.9727 87.0498 68.9512 87.3926 69.6719 88.0781C70.3926 88.7637 70.7529 89.6133 70.7529 90.627C70.7529 91.1426 70.6475 91.6494 70.4365 92.1475C70.2256 92.6455 69.874 93.1699 69.3818 93.7207C68.8955 94.2715 68.084 95.0273 66.9473 95.9883C65.998 96.7852 65.3887 97.3271 65.1191 97.6143C64.8496 97.8955 64.627 98.1797 64.4512 98.4668H70.7705ZM72.4756 93.6328C72.4756 92.1094 72.6309 90.8848 72.9414 89.959C73.2578 89.0273 73.7236 88.3096 74.3389 87.8057C74.96 87.3018 75.7393 87.0498 76.6768 87.0498C77.3682 87.0498 77.9746 87.1904 78.4961 87.4717C79.0176 87.7471 79.4482 88.1484 79.7881 88.6758C80.1279 89.1973 80.3945 89.8359 80.5879 90.5918C80.7812 91.3418 80.8779 92.3555 80.8779 93.6328C80.8779 95.1445 80.7227 96.3662 80.4121 97.2979C80.1016 98.2236 79.6357 98.9414 79.0146 99.4512C78.3994 99.9551 77.6201 100.207 76.6768 100.207C75.4346 100.207 74.459 99.7617 73.75 98.8711C72.9004 97.7988 72.4756 96.0527 72.4756 93.6328ZM74.1016 93.6328C74.1016 95.748 74.3477 97.1572 74.8398 97.8604C75.3379 98.5576 75.9502 98.9062 76.6768 98.9062C77.4033 98.9062 78.0127 98.5547 78.5049 97.8516C79.0029 97.1484 79.252 95.7422 79.252 93.6328C79.252 91.5117 79.0029 90.1025 78.5049 89.4053C78.0127 88.708 77.3975 88.3594 76.6592 88.3594C75.9326 88.3594 75.3525 88.667 74.9189 89.2822C74.374 90.0674 74.1016 91.5176 74.1016 93.6328ZM82.5127 95.0918V93.29C83.1338 92.5869 83.9482 92.2354 84.9561 92.2354C85.3076 92.2354 85.6768 92.2881 86.0635 92.3936C86.4502 92.4932 87.001 92.6953 87.7158 93C88.1201 93.1699 88.4219 93.2812 88.6211 93.334C88.8262 93.3867 89.0312 93.4131 89.2363 93.4131C89.6172 93.4131 90.0098 93.2988 90.4141 93.0703C90.8242 92.8418 91.1875 92.5547 91.5039 92.209V94.0723C91.1289 94.4238 90.748 94.6787 90.3613 94.8369C89.9805 94.9951 89.5498 95.0742 89.0693 95.0742C88.7178 95.0742 88.3809 95.0332 88.0586 94.9512C87.7422 94.8691 87.2354 94.6729 86.5381 94.3623C85.8467 94.0518 85.2695 93.8965 84.8066 93.8965C84.4316 93.8965 84.0771 93.9785 83.7432 94.1426C83.415 94.3008 83.0049 94.6172 82.5127 95.0918ZM93.0156 96.5859L94.5977 96.375C94.7793 97.2715 95.0869 97.9189 95.5205 98.3174C95.96 98.71 96.4932 98.9062 97.1201 98.9062C97.8643 98.9062 98.4912 98.6484 99.001 98.1328C99.5166 97.6172 99.7744 96.9785 99.7744 96.2168C99.7744 95.4902 99.5371 94.8926 99.0625 94.4238C98.5879 93.9492 97.9844 93.7119 97.252 93.7119C96.9531 93.7119 96.5811 93.7705 96.1357 93.8877L96.3115 92.499C96.417 92.5107 96.502 92.5166 96.5664 92.5166C97.2402 92.5166 97.8467 92.3408 98.3857 91.9893C98.9248 91.6377 99.1943 91.0957 99.1943 90.3633C99.1943 89.7832 98.998 89.3027 98.6055 88.9219C98.2129 88.541 97.7061 88.3506 97.085 88.3506C96.4697 88.3506 95.957 88.5439 95.5469 88.9307C95.1367 89.3174 94.873 89.8975 94.7559 90.6709L93.1738 90.3896C93.3672 89.3291 93.8066 88.5088 94.4922 87.9287C95.1777 87.3428 96.0303 87.0498 97.0498 87.0498C97.7529 87.0498 98.4004 87.2021 98.9922 87.5068C99.584 87.8057 100.035 88.2158 100.346 88.7373C100.662 89.2588 100.82 89.8125 100.82 90.3984C100.82 90.9551 100.671 91.4619 100.372 91.9189C100.073 92.376 99.6309 92.7393 99.0449 93.0088C99.8066 93.1846 100.398 93.5508 100.82 94.1074C101.242 94.6582 101.453 95.3496 101.453 96.1816C101.453 97.3066 101.043 98.2617 100.223 99.0469C99.4023 99.8262 98.3652 100.216 97.1113 100.216C95.9805 100.216 95.04 99.8789 94.29 99.2051C93.5459 98.5312 93.1211 97.6582 93.0156 96.5859ZM103.026 93.6328C103.026 92.1094 103.182 90.8848 103.492 89.959C103.809 89.0273 104.274 88.3096 104.89 87.8057C105.511 87.3018 106.29 87.0498 107.228 87.0498C107.919 87.0498 108.525 87.1904 109.047 87.4717C109.568 87.7471 109.999 88.1484 110.339 88.6758C110.679 89.1973 110.945 89.8359 111.139 90.5918C111.332 91.3418 111.429 92.3555 111.429 93.6328C111.429 95.1445 111.273 96.3662 110.963 97.2979C110.652 98.2236 110.187 98.9414 109.565 99.4512C108.95 99.9551 108.171 100.207 107.228 100.207C105.985 100.207 105.01 99.7617 104.301 98.8711C103.451 97.7988 103.026 96.0527 103.026 93.6328ZM104.652 93.6328C104.652 95.748 104.898 97.1572 105.391 97.8604C105.889 98.5576 106.501 98.9062 107.228 98.9062C107.954 98.9062 108.563 98.5547 109.056 97.8516C109.554 97.1484 109.803 95.7422 109.803 93.6328C109.803 91.5117 109.554 90.1025 109.056 89.4053C108.563 88.708 107.948 88.3594 107.21 88.3594C106.483 88.3594 105.903 88.667 105.47 89.2822C104.925 90.0674 104.652 91.5176 104.652 93.6328Z" fill="black"/>
<path d="M68.415 138.481H66.833V128.4C66.4521 128.763 65.9512 129.126 65.3301 129.49C64.7148 129.853 64.1611 130.125 63.6689 130.307V128.778C64.5537 128.362 65.3271 127.858 65.9893 127.266C66.6514 126.674 67.1201 126.1 67.3955 125.543H68.415V138.481ZM72.4756 135.106L74.1367 134.965C74.2598 135.774 74.5439 136.383 74.9893 136.793C75.4404 137.198 75.9824 137.4 76.6152 137.4C77.377 137.4 78.0215 137.113 78.5488 136.539C79.0762 135.964 79.3398 135.203 79.3398 134.253C79.3398 133.351 79.085 132.639 78.5752 132.118C78.0713 131.596 77.4092 131.335 76.5889 131.335C76.0791 131.335 75.6191 131.453 75.209 131.687C74.7988 131.916 74.4766 132.214 74.2422 132.583L72.7568 132.39L74.0049 125.772H80.4121V127.284H75.2705L74.5762 130.747C75.3496 130.208 76.1611 129.938 77.0107 129.938C78.1357 129.938 79.085 130.328 79.8584 131.107C80.6318 131.886 81.0186 132.888 81.0186 134.113C81.0186 135.279 80.6787 136.287 79.999 137.136C79.1729 138.179 78.0449 138.701 76.6152 138.701C75.4434 138.701 74.4854 138.373 73.7412 137.716C73.0029 137.06 72.5811 136.19 72.4756 135.106ZM82.5127 133.585V131.784C83.1338 131.081 83.9482 130.729 84.9561 130.729C85.3076 130.729 85.6768 130.782 86.0635 130.887C86.4502 130.987 87.001 131.189 87.7158 131.494C88.1201 131.664 88.4219 131.775 88.6211 131.828C88.8262 131.88 89.0312 131.907 89.2363 131.907C89.6172 131.907 90.0098 131.792 90.4141 131.564C90.8242 131.335 91.1875 131.048 91.5039 130.703V132.566C91.1289 132.917 90.748 133.172 90.3613 133.331C89.9805 133.489 89.5498 133.568 89.0693 133.568C88.7178 133.568 88.3809 133.527 88.0586 133.445C87.7422 133.363 87.2354 133.167 86.5381 132.856C85.8467 132.545 85.2695 132.39 84.8066 132.39C84.4316 132.39 84.0771 132.472 83.7432 132.636C83.415 132.794 83.0049 133.111 82.5127 133.585ZM101.321 136.96V138.481H92.8047C92.793 138.1 92.8545 137.734 92.9893 137.382C93.2061 136.802 93.5518 136.231 94.0264 135.668C94.5068 135.106 95.1982 134.456 96.1006 133.717C97.501 132.569 98.4473 131.661 98.9395 130.993C99.4316 130.319 99.6777 129.683 99.6777 129.085C99.6777 128.458 99.4521 127.931 99.001 127.503C98.5557 127.07 97.9727 126.853 97.252 126.853C96.4902 126.853 95.8809 127.082 95.4238 127.539C94.9668 127.996 94.7354 128.628 94.7295 129.437L93.1035 129.27C93.2148 128.057 93.6338 127.134 94.3604 126.501C95.0869 125.863 96.0625 125.543 97.2871 125.543C98.5234 125.543 99.502 125.886 100.223 126.572C100.943 127.257 101.304 128.107 101.304 129.121C101.304 129.636 101.198 130.143 100.987 130.641C100.776 131.139 100.425 131.664 99.9326 132.214C99.4463 132.765 98.6348 133.521 97.498 134.482C96.5488 135.279 95.9395 135.821 95.6699 136.108C95.4004 136.389 95.1777 136.673 95.002 136.96H101.321ZM103.026 132.126C103.026 130.603 103.182 129.378 103.492 128.453C103.809 127.521 104.274 126.803 104.89 126.299C105.511 125.795 106.29 125.543 107.228 125.543C107.919 125.543 108.525 125.684 109.047 125.965C109.568 126.241 109.999 126.642 110.339 127.169C110.679 127.691 110.945 128.33 111.139 129.085C111.332 129.835 111.429 130.849 111.429 132.126C111.429 133.638 111.273 134.86 110.963 135.792C110.652 136.717 110.187 137.435 109.565 137.945C108.95 138.449 108.171 138.701 107.228 138.701C105.985 138.701 105.01 138.255 104.301 137.365C103.451 136.292 103.026 134.546 103.026 132.126ZM104.652 132.126C104.652 134.242 104.898 135.651 105.391 136.354C105.889 137.051 106.501 137.4 107.228 137.4C107.954 137.4 108.563 137.048 109.056 136.345C109.554 135.642 109.803 134.236 109.803 132.126C109.803 130.005 109.554 128.596 109.056 127.899C108.563 127.202 107.948 126.853 107.21 126.853C106.483 126.853 105.903 127.161 105.47 127.776C104.925 128.561 104.652 130.011 104.652 132.126Z" fill="black"/>
<path d="M68.415 175.506H66.833V165.425C66.4521 165.789 65.9512 166.152 65.3301 166.515C64.7148 166.878 64.1611 167.151 63.6689 167.333V165.803C64.5537 165.387 65.3271 164.883 65.9893 164.292C66.6514 163.7 67.1201 163.125 67.3955 162.569H68.415V175.506ZM72.4756 169.152C72.4756 167.628 72.6309 166.404 72.9414 165.478C73.2578 164.546 73.7236 163.829 74.3389 163.325C74.96 162.821 75.7393 162.569 76.6768 162.569C77.3682 162.569 77.9746 162.709 78.4961 162.991C79.0176 163.266 79.4482 163.667 79.7881 164.195C80.1279 164.716 80.3945 165.355 80.5879 166.111C80.7812 166.861 80.8779 167.875 80.8779 169.152C80.8779 170.664 80.7227 171.885 80.4121 172.817C80.1016 173.743 79.6357 174.46 79.0146 174.97C78.3994 175.474 77.6201 175.726 76.6768 175.726C75.4346 175.726 74.459 175.281 73.75 174.39C72.9004 173.318 72.4756 171.572 72.4756 169.152ZM74.1016 169.152C74.1016 171.267 74.3477 172.676 74.8398 173.379C75.3379 174.077 75.9502 174.425 76.6768 174.425C77.4033 174.425 78.0127 174.074 78.5049 173.371C79.0029 172.667 79.252 171.261 79.252 169.152C79.252 167.031 79.0029 165.622 78.5049 164.924C78.0127 164.227 77.3975 163.878 76.6592 163.878C75.9326 163.878 75.3525 164.186 74.9189 164.801C74.374 165.586 74.1016 167.037 74.1016 169.152ZM82.5127 170.611V168.809C83.1338 168.106 83.9482 167.754 84.9561 167.754C85.3076 167.754 85.6768 167.807 86.0635 167.913C86.4502 168.012 87.001 168.214 87.7158 168.519C88.1201 168.689 88.4219 168.8 88.6211 168.853C88.8262 168.906 89.0312 168.932 89.2363 168.932C89.6172 168.932 90.0098 168.818 90.4141 168.589C90.8242 168.361 91.1875 168.074 91.5039 167.728V169.591C91.1289 169.943 90.748 170.198 90.3613 170.356C89.9805 170.514 89.5498 170.593 89.0693 170.593C88.7178 170.593 88.3809 170.552 88.0586 170.47C87.7422 170.388 87.2354 170.192 86.5381 169.881C85.8467 169.571 85.2695 169.416 84.8066 169.416C84.4316 169.416 84.0771 169.498 83.7432 169.662C83.415 169.82 83.0049 170.136 82.5127 170.611ZM98.9658 175.506H97.3838V165.425C97.0029 165.789 96.502 166.152 95.8809 166.515C95.2656 166.878 94.7119 167.151 94.2197 167.333V165.803C95.1045 165.387 95.8779 164.883 96.54 164.292C97.2021 163.7 97.6709 163.125 97.9463 162.569H98.9658V175.506ZM103.026 172.131L104.688 171.991C104.811 172.799 105.095 173.409 105.54 173.819C105.991 174.223 106.533 174.425 107.166 174.425C107.928 174.425 108.572 174.138 109.1 173.564C109.627 172.99 109.891 172.228 109.891 171.279C109.891 170.376 109.636 169.665 109.126 169.143C108.622 168.622 107.96 168.361 107.14 168.361C106.63 168.361 106.17 168.478 105.76 168.712C105.35 168.941 105.027 169.24 104.793 169.609L103.308 169.416L104.556 162.797H110.963V164.309H105.821L105.127 167.772C105.9 167.233 106.712 166.963 107.562 166.963C108.687 166.963 109.636 167.353 110.409 168.132C111.183 168.912 111.569 169.914 111.569 171.138C111.569 172.304 111.229 173.312 110.55 174.162C109.724 175.205 108.596 175.726 107.166 175.726C105.994 175.726 105.036 175.398 104.292 174.742C103.554 174.085 103.132 173.215 103.026 172.131Z" fill="black"/>
<path d="M62.4561 209.157L64.1172 209.016C64.2402 209.825 64.5244 210.434 64.9697 210.844C65.4209 211.249 65.9629 211.451 66.5957 211.451C67.3574 211.451 68.002 211.164 68.5293 210.589C69.0566 210.015 69.3203 209.253 69.3203 208.304C69.3203 207.402 69.0654 206.69 68.5557 206.168C68.0518 205.647 67.3896 205.386 66.5693 205.386C66.0596 205.386 65.5996 205.503 65.1895 205.738C64.7793 205.966 64.457 206.265 64.2227 206.634L62.7373 206.441L63.9854 199.823H70.3926V201.334H65.251L64.5566 204.797C65.3301 204.258 66.1416 203.989 66.9912 203.989C68.1162 203.989 69.0654 204.378 69.8389 205.158C70.6123 205.937 70.999 206.939 70.999 208.164C70.999 209.33 70.6592 210.337 69.9795 211.187C69.1533 212.23 68.0254 212.751 66.5957 212.751C65.4238 212.751 64.4658 212.423 63.7217 211.767C62.9834 211.111 62.5615 210.241 62.4561 209.157ZM72.4932 207.636V205.834C73.1143 205.131 73.9287 204.78 74.9365 204.78C75.2881 204.78 75.6572 204.833 76.0439 204.938C76.4307 205.038 76.9814 205.24 77.6963 205.544C78.1006 205.714 78.4023 205.826 78.6016 205.878C78.8066 205.931 79.0117 205.958 79.2168 205.958C79.5977 205.958 79.9902 205.843 80.3945 205.615C80.8047 205.386 81.168 205.099 81.4844 204.753V206.617C81.1094 206.968 80.7285 207.223 80.3418 207.381C79.9609 207.54 79.5303 207.619 79.0498 207.619C78.6982 207.619 78.3613 207.578 78.0391 207.496C77.7227 207.414 77.2158 207.217 76.5186 206.907C75.8271 206.596 75.25 206.441 74.7871 206.441C74.4121 206.441 74.0576 206.523 73.7236 206.687C73.3955 206.845 72.9854 207.162 72.4932 207.636ZM88.9463 212.532H87.3643V202.451C86.9834 202.814 86.4824 203.177 85.8613 203.541C85.2461 203.904 84.6924 204.176 84.2002 204.358V202.829C85.085 202.413 85.8584 201.909 86.5205 201.317C87.1826 200.725 87.6514 200.151 87.9268 199.594H88.9463V212.532ZM93.0068 206.177C93.0068 204.654 93.1621 203.429 93.4727 202.503C93.7891 201.572 94.2549 200.854 94.8701 200.35C95.4912 199.846 96.2705 199.594 97.208 199.594C97.8994 199.594 98.5059 199.735 99.0273 200.016C99.5488 200.292 99.9795 200.693 100.319 201.22C100.659 201.742 100.926 202.38 101.119 203.136C101.312 203.886 101.409 204.9 101.409 206.177C101.409 207.689 101.254 208.911 100.943 209.842C100.633 210.768 100.167 211.486 99.5459 211.996C98.9307 212.5 98.1514 212.751 97.208 212.751C95.9658 212.751 94.9902 212.306 94.2812 211.416C93.4316 210.343 93.0068 208.597 93.0068 206.177ZM94.6328 206.177C94.6328 208.292 94.8789 209.702 95.3711 210.405C95.8691 211.102 96.4814 211.451 97.208 211.451C97.9346 211.451 98.5439 211.099 99.0361 210.396C99.5342 209.693 99.7832 208.287 99.7832 206.177C99.7832 204.056 99.5342 202.647 99.0361 201.95C98.5439 201.252 97.9287 200.904 97.1904 200.904C96.4639 200.904 95.8838 201.211 95.4502 201.827C94.9053 202.612 94.6328 204.062 94.6328 206.177Z" fill="black"/>
<path d="M62.4648 246.156L64.0469 245.945C64.2285 246.841 64.5361 247.489 64.9697 247.887C65.4092 248.28 65.9424 248.476 66.5693 248.476C67.3135 248.476 67.9404 248.218 68.4502 247.702C68.9658 247.187 69.2236 246.548 69.2236 245.786C69.2236 245.06 68.9863 244.462 68.5117 243.993C68.0371 243.519 67.4336 243.281 66.7012 243.281C66.4023 243.281 66.0303 243.34 65.585 243.457L65.7607 242.069C65.8662 242.08 65.9512 242.086 66.0156 242.086C66.6895 242.086 67.2959 241.91 67.835 241.559C68.374 241.207 68.6436 240.665 68.6436 239.933C68.6436 239.353 68.4473 238.872 68.0547 238.491C67.6621 238.111 67.1553 237.92 66.5342 237.92C65.9189 237.92 65.4062 238.114 64.9961 238.5C64.5859 238.887 64.3223 239.467 64.2051 240.24L62.623 239.959C62.8164 238.899 63.2559 238.078 63.9414 237.498C64.627 236.912 65.4795 236.619 66.499 236.619C67.2021 236.619 67.8496 236.772 68.4414 237.076C69.0332 237.375 69.4844 237.785 69.7949 238.307C70.1113 238.828 70.2695 239.382 70.2695 239.968C70.2695 240.525 70.1201 241.031 69.8213 241.489C69.5225 241.946 69.0801 242.309 68.4941 242.578C69.2559 242.754 69.8477 243.12 70.2695 243.677C70.6914 244.228 70.9023 244.919 70.9023 245.751C70.9023 246.876 70.4922 247.831 69.6719 248.616C68.8516 249.396 67.8145 249.785 66.5605 249.785C65.4297 249.785 64.4893 249.448 63.7393 248.775C62.9951 248.101 62.5703 247.228 62.4648 246.156ZM72.4932 244.661V242.86C73.1143 242.156 73.9287 241.805 74.9365 241.805C75.2881 241.805 75.6572 241.858 76.0439 241.963C76.4307 242.063 76.9814 242.265 77.6963 242.57C78.1006 242.74 78.4023 242.851 78.6016 242.904C78.8066 242.956 79.0117 242.983 79.2168 242.983C79.5977 242.983 79.9902 242.868 80.3945 242.64C80.8047 242.411 81.168 242.124 81.4844 241.779V243.642C81.1094 243.993 80.7285 244.248 80.3418 244.406C79.9609 244.565 79.5303 244.644 79.0498 244.644C78.6982 244.644 78.3613 244.603 78.0391 244.521C77.7227 244.439 77.2158 244.242 76.5186 243.932C75.8271 243.621 75.25 243.466 74.7871 243.466C74.4121 243.466 74.0576 243.548 73.7236 243.712C73.3955 243.87 72.9854 244.187 72.4932 244.661ZM82.9873 246.182L84.6484 246.041C84.7715 246.85 85.0557 247.459 85.501 247.869C85.9521 248.274 86.4941 248.476 87.127 248.476C87.8887 248.476 88.5332 248.189 89.0605 247.615C89.5879 247.04 89.8516 246.279 89.8516 245.329C89.8516 244.427 89.5967 243.715 89.0869 243.194C88.583 242.672 87.9209 242.411 87.1006 242.411C86.5908 242.411 86.1309 242.529 85.7207 242.763C85.3105 242.991 84.9883 243.29 84.7539 243.659L83.2686 243.466L84.5166 236.848H90.9238V238.36H85.7822L85.0879 241.823C85.8613 241.283 86.6729 241.014 87.5225 241.014C88.6475 241.014 89.5967 241.404 90.3701 242.183C91.1436 242.962 91.5303 243.964 91.5303 245.189C91.5303 246.355 91.1904 247.363 90.5107 248.212C89.6846 249.255 88.5566 249.777 87.127 249.777C85.9551 249.777 84.9971 249.448 84.2529 248.792C83.5146 248.136 83.0928 247.266 82.9873 246.182Z" fill="black"/>
<path d="M62.4561 280.228C62.4561 278.704 62.6113 277.48 62.9219 276.554C63.2383 275.622 63.7041 274.905 64.3193 274.401C64.9404 273.897 65.7197 273.645 66.6572 273.645C67.3486 273.645 67.9551 273.785 68.4766 274.067C68.998 274.342 69.4287 274.743 69.7686 275.271C70.1084 275.792 70.375 276.431 70.5684 277.187C70.7617 277.937 70.8584 278.95 70.8584 280.228C70.8584 281.74 70.7031 282.961 70.3926 283.893C70.082 284.819 69.6162 285.536 68.9951 286.046C68.3799 286.55 67.6006 286.802 66.6572 286.802C65.415 286.802 64.4395 286.357 63.7305 285.466C62.8809 284.394 62.4561 282.648 62.4561 280.228ZM64.082 280.228C64.082 282.343 64.3281 283.752 64.8203 284.455C65.3184 285.153 65.9307 285.501 66.6572 285.501C67.3838 285.501 67.9932 285.15 68.4854 284.447C68.9834 283.743 69.2324 282.337 69.2324 280.228C69.2324 278.107 68.9834 276.698 68.4854 276C67.9932 275.303 67.3779 274.954 66.6396 274.954C65.9131 274.954 65.333 275.262 64.8994 275.877C64.3545 276.662 64.082 278.113 64.082 280.228ZM72.4932 281.687V279.885C73.1143 279.182 73.9287 278.83 74.9365 278.83C75.2881 278.83 75.6572 278.883 76.0439 278.989C76.4307 279.088 76.9814 279.29 77.6963 279.595C78.1006 279.765 78.4023 279.876 78.6016 279.929C78.8066 279.982 79.0117 280.008 79.2168 280.008C79.5977 280.008 79.9902 279.894 80.3945 279.665C80.8047 279.437 81.168 279.15 81.4844 278.804V280.667C81.1094 281.019 80.7285 281.274 80.3418 281.432C79.9609 281.59 79.5303 281.669 79.0498 281.669C78.6982 281.669 78.3613 281.628 78.0391 281.546C77.7227 281.464 77.2158 281.268 76.5186 280.957C75.8271 280.647 75.25 280.491 74.7871 280.491C74.4121 280.491 74.0576 280.573 73.7236 280.738C73.3955 280.896 72.9854 281.212 72.4932 281.687ZM82.9961 283.181L84.5781 282.97C84.7598 283.866 85.0674 284.514 85.501 284.912C85.9404 285.305 86.4736 285.501 87.1006 285.501C87.8447 285.501 88.4717 285.243 88.9814 284.728C89.4971 284.212 89.7549 283.573 89.7549 282.812C89.7549 282.085 89.5176 281.488 89.043 281.019C88.5684 280.544 87.9648 280.307 87.2324 280.307C86.9336 280.307 86.5615 280.365 86.1162 280.483L86.292 279.094C86.3975 279.106 86.4824 279.112 86.5469 279.112C87.2207 279.112 87.8271 278.936 88.3662 278.584C88.9053 278.233 89.1748 277.691 89.1748 276.958C89.1748 276.378 88.9785 275.898 88.5859 275.517C88.1934 275.136 87.6865 274.946 87.0654 274.946C86.4502 274.946 85.9375 275.139 85.5273 275.526C85.1172 275.912 84.8535 276.492 84.7363 277.266L83.1543 276.985C83.3477 275.924 83.7871 275.104 84.4727 274.524C85.1582 273.938 86.0107 273.645 87.0303 273.645C87.7334 273.645 88.3809 273.797 88.9727 274.102C89.5645 274.401 90.0156 274.811 90.3262 275.332C90.6426 275.854 90.8008 276.407 90.8008 276.993C90.8008 277.55 90.6514 278.057 90.3525 278.514C90.0537 278.971 89.6113 279.334 89.0254 279.604C89.7871 279.78 90.3789 280.146 90.8008 280.702C91.2227 281.253 91.4336 281.945 91.4336 282.777C91.4336 283.902 91.0234 284.857 90.2031 285.642C89.3828 286.421 88.3457 286.811 87.0918 286.811C85.9609 286.811 85.0205 286.474 84.2705 285.8C83.5264 285.126 83.1016 284.253 82.9961 283.181Z" fill="black"/>
<rect x="2.46826" width="49.3671" height="29.6203" fill="black"/>
<rect x="2.46826" y="39.4937" width="49.3671" height="29.6203" fill="#41112F"/>
<rect x="2.46826" y="78.9873" width="49.3671" height="29.6203" fill="#641B46"/>
<rect x="2.46826" y="118.481" width="49.3671" height="27.1519" fill="#934D78"/>
<rect x="2.46826" y="155.506" width="49.3671" height="27.1519" fill="#B17B9F"/>
<rect x="2.46826" y="192.532" width="49.3671" height="27.1519" fill="#C9A6BC"/>
<rect x="2.46826" y="229.557" width="49.3671" height="27.1519" fill="#E3D1DC"/>
<rect x="2.46826" y="266.582" width="49.3671" height="29.6203" fill="white"/>
</svg>
