<svg width="181" height="390" viewBox="0 0 181 390" fill="none" xmlns="http://www.w3.org/2000/svg">
<path d="M9.44 346.705V358.645H10.44V346.705H9.44ZM4.22 349.985H15.94V352.105H4.22V349.985ZM4.22 347.085H15.94V349.165H4.22V347.085ZM3.28 346.245V352.945H16.9V346.245H3.28ZM1.2 354.765V355.665H18.82V354.765H1.2ZM3.76 342.025H8.18V344.345H3.76V342.025ZM2.86 341.285V345.105H9.1V341.285H2.86ZM11.88 342.025H16.36V344.345H11.88V342.025ZM10.98 341.285V345.105H17.3V341.285H10.98ZM27.44 344.285V345.225H38.16V344.285H27.44ZM28.84 346.985C29.5 349.825 30.14 353.605 30.3 355.725L31.28 355.445C31.06 353.385 30.42 349.685 29.74 346.785L28.84 346.985ZM35.68 346.585C35.24 349.685 34.34 354.305 33.54 357.045L34.4 357.265C35.2 354.505 36.12 350.045 36.7 346.765L35.68 346.585ZM26.52 356.865V357.805H39.06V356.865H26.52ZM31.58 340.685C31.98 341.705 32.38 343.025 32.56 343.885L33.5 343.585C33.32 342.745 32.86 341.445 32.48 340.425L31.58 340.685ZM26.04 340.565C24.84 343.705 22.9 346.805 20.82 348.805C21.02 349.005 21.34 349.485 21.44 349.705C23.6 347.485 25.64 344.225 26.96 340.825L26.04 340.565ZM23.84 345.485V358.625H24.8V344.565L24.78 344.545L23.84 345.485ZM45 347.265C45.66 347.265 46.26 346.805 46.26 346.005C46.26 345.185 45.66 344.725 45 344.725C44.32 344.725 43.72 345.185 43.72 346.005C43.72 346.805 44.32 347.265 45 347.265ZM45 357.205C45.66 357.205 46.26 356.745 46.26 355.925C46.26 355.125 45.66 354.645 45 354.645C44.32 354.645 43.72 355.125 43.72 355.925C43.72 356.745 44.32 357.205 45 357.205ZM61.12 348.425V349.365H78.9V348.425H61.12ZM69.44 342.805V358.665H70.44V342.805H69.44ZM76.08 340.805C72.98 341.805 67.08 342.645 62.18 343.145C62.28 343.385 62.42 343.765 62.46 344.005C67.42 343.525 73.32 342.705 76.84 341.625L76.08 340.805ZM89.56 340.585C89.5 343.465 89.48 353.705 81.02 357.825C81.28 358.025 81.6 358.325 81.78 358.565C90.36 354.245 90.52 343.785 90.6 340.585H89.56ZM90.42 343.065L89.52 343.145C89.78 344.745 90.7 354.925 98.44 358.505C98.6 358.245 98.9 357.905 99.16 357.705C91.54 354.305 90.62 344.385 90.42 343.065Z" fill="black"/>
<path d="M62.4561 57.1187L64.1172 56.978C64.2402 57.7866 64.5244 58.396 64.9697 58.8062C65.4209 59.2104 65.9629 59.4126 66.5957 59.4126C67.3574 59.4126 68.002 59.1255 68.5293 58.5513C69.0566 57.9771 69.3203 57.2153 69.3203 56.2661C69.3203 55.3638 69.0654 54.6519 68.5557 54.1304C68.0518 53.6089 67.3896 53.3481 66.5693 53.3481C66.0596 53.3481 65.5996 53.4653 65.1895 53.6997C64.7793 53.9282 64.457 54.2271 64.2227 54.5962L62.7373 54.4028L63.9854 47.7847H70.3926V49.2964H65.251L64.5566 52.7593C65.3301 52.2202 66.1416 51.9507 66.9912 51.9507C68.1162 51.9507 69.0654 52.3403 69.8389 53.1196C70.6123 53.8989 70.999 54.9009 70.999 56.1255C70.999 57.2915 70.6592 58.2993 69.9795 59.1489C69.1533 60.1919 68.0254 60.7134 66.5957 60.7134C65.4238 60.7134 64.4658 60.3853 63.7217 59.729C62.9834 59.0728 62.5615 58.2026 62.4561 57.1187ZM72.4756 54.1392C72.4756 52.6157 72.6309 51.3911 72.9414 50.4653C73.2578 49.5337 73.7236 48.8159 74.3389 48.312C74.96 47.8081 75.7393 47.5562 76.6768 47.5562C77.3682 47.5562 77.9746 47.6968 78.4961 47.978C79.0176 48.2534 79.4482 48.6548 79.7881 49.1821C80.1279 49.7036 80.3945 50.3423 80.5879 51.0981C80.7812 51.8481 80.8779 52.8618 80.8779 54.1392C80.8779 55.6509 80.7227 56.8726 80.4121 57.8042C80.1016 58.73 79.6357 59.4478 79.0146 59.9575C78.3994 60.4614 77.6201 60.7134 76.6768 60.7134C75.4346 60.7134 74.459 60.2681 73.75 59.3774C72.9004 58.3052 72.4756 56.5591 72.4756 54.1392ZM74.1016 54.1392C74.1016 56.2544 74.3477 57.6636 74.8398 58.3667C75.3379 59.064 75.9502 59.4126 76.6768 59.4126C77.4033 59.4126 78.0127 59.061 78.5049 58.3579C79.0029 57.6548 79.252 56.2485 79.252 54.1392C79.252 52.0181 79.0029 50.6089 78.5049 49.9116C78.0127 49.2144 77.3975 48.8657 76.6592 48.8657C75.9326 48.8657 75.3525 49.1733 74.9189 49.7886C74.374 50.5737 74.1016 52.0239 74.1016 54.1392ZM83.3828 60.4937V58.6919H85.1846V60.4937H83.3828ZM93.4639 60.4937H91.8818V50.4126C91.501 50.7759 91 51.1392 90.3789 51.5024C89.7637 51.8657 89.21 52.1382 88.7178 52.3198V50.7905C89.6025 50.3745 90.376 49.8706 91.0381 49.2788C91.7002 48.687 92.1689 48.1128 92.4443 47.5562H93.4639V60.4937ZM97.542 55.5981V53.7964C98.1631 53.0933 98.9775 52.7417 99.9854 52.7417C100.337 52.7417 100.706 52.7944 101.093 52.8999C101.479 52.9995 102.03 53.2017 102.745 53.5063C103.149 53.6763 103.451 53.7876 103.65 53.8403C103.855 53.8931 104.061 53.9194 104.266 53.9194C104.646 53.9194 105.039 53.8052 105.443 53.5767C105.854 53.3481 106.217 53.061 106.533 52.7153V54.5786C106.158 54.9302 105.777 55.1851 105.391 55.3433C105.01 55.5015 104.579 55.5806 104.099 55.5806C103.747 55.5806 103.41 55.5396 103.088 55.4575C102.771 55.3755 102.265 55.1792 101.567 54.8687C100.876 54.5581 100.299 54.4028 99.8359 54.4028C99.4609 54.4028 99.1064 54.4849 98.7725 54.6489C98.4443 54.8071 98.0342 55.1235 97.542 55.5981ZM113.995 60.4937H112.413V50.4126C112.032 50.7759 111.531 51.1392 110.91 51.5024C110.295 51.8657 109.741 52.1382 109.249 52.3198V50.7905C110.134 50.3745 110.907 49.8706 111.569 49.2788C112.231 48.687 112.7 48.1128 112.976 47.5562H113.995V60.4937ZM118.056 54.1392C118.056 52.6157 118.211 51.3911 118.521 50.4653C118.838 49.5337 119.304 48.8159 119.919 48.312C120.54 47.8081 121.319 47.5562 122.257 47.5562C122.948 47.5562 123.555 47.6968 124.076 47.978C124.598 48.2534 125.028 48.6548 125.368 49.1821C125.708 49.7036 125.975 50.3423 126.168 51.0981C126.361 51.8481 126.458 52.8618 126.458 54.1392C126.458 55.6509 126.303 56.8726 125.992 57.8042C125.682 58.73 125.216 59.4478 124.595 59.9575C123.979 60.4614 123.2 60.7134 122.257 60.7134C121.015 60.7134 120.039 60.2681 119.33 59.3774C118.48 58.3052 118.056 56.5591 118.056 54.1392ZM119.682 54.1392C119.682 56.2544 119.928 57.6636 120.42 58.3667C120.918 59.064 121.53 59.4126 122.257 59.4126C122.983 59.4126 123.593 59.061 124.085 58.3579C124.583 57.6548 124.832 56.2485 124.832 54.1392C124.832 52.0181 124.583 50.6089 124.085 49.9116C123.593 49.2144 122.978 48.8657 122.239 48.8657C121.513 48.8657 120.933 49.1733 120.499 49.7886C119.954 50.5737 119.682 52.0239 119.682 54.1392ZM128.075 54.1392C128.075 52.6157 128.23 51.3911 128.541 50.4653C128.857 49.5337 129.323 48.8159 129.938 48.312C130.56 47.8081 131.339 47.5562 132.276 47.5562C132.968 47.5562 133.574 47.6968 134.096 47.978C134.617 48.2534 135.048 48.6548 135.388 49.1821C135.728 49.7036 135.994 50.3423 136.188 51.0981C136.381 51.8481 136.478 52.8618 136.478 54.1392C136.478 55.6509 136.322 56.8726 136.012 57.8042C135.701 58.73 135.235 59.4478 134.614 59.9575C133.999 60.4614 133.22 60.7134 132.276 60.7134C131.034 60.7134 130.059 60.2681 129.35 59.3774C128.5 58.3052 128.075 56.5591 128.075 54.1392ZM129.701 54.1392C129.701 56.2544 129.947 57.6636 130.439 58.3667C130.938 59.064 131.55 59.4126 132.276 59.4126C133.003 59.4126 133.612 59.061 134.104 58.3579C134.603 57.6548 134.852 56.2485 134.852 54.1392C134.852 52.0181 134.603 50.6089 134.104 49.9116C133.612 49.2144 132.997 48.8657 132.259 48.8657C131.532 48.8657 130.952 49.1733 130.519 49.7886C129.974 50.5737 129.701 52.0239 129.701 54.1392Z" fill="black"/>
<path d="M68.415 21H66.833V10.9189C66.4521 11.2822 65.9512 11.6455 65.3301 12.0088C64.7148 12.3721 64.1611 12.6445 63.6689 12.8262V11.2969C64.5537 10.8809 65.3271 10.377 65.9893 9.78516C66.6514 9.19336 67.1201 8.61914 67.3955 8.0625H68.415V21ZM72.4756 14.6455C72.4756 13.1221 72.6309 11.8975 72.9414 10.9717C73.2578 10.04 73.7236 9.32227 74.3389 8.81836C74.96 8.31445 75.7393 8.0625 76.6768 8.0625C77.3682 8.0625 77.9746 8.20312 78.4961 8.48438C79.0176 8.75977 79.4482 9.16113 79.7881 9.68848C80.1279 10.21 80.3945 10.8486 80.5879 11.6045C80.7812 12.3545 80.8779 13.3682 80.8779 14.6455C80.8779 16.1572 80.7227 17.3789 80.4121 18.3105C80.1016 19.2363 79.6357 19.9541 79.0146 20.4639C78.3994 20.9678 77.6201 21.2197 76.6768 21.2197C75.4346 21.2197 74.459 20.7744 73.75 19.8838C72.9004 18.8115 72.4756 17.0654 72.4756 14.6455ZM74.1016 14.6455C74.1016 16.7607 74.3477 18.1699 74.8398 18.873C75.3379 19.5703 75.9502 19.9189 76.6768 19.9189C77.4033 19.9189 78.0127 19.5674 78.5049 18.8643C79.0029 18.1611 79.252 16.7549 79.252 14.6455C79.252 12.5244 79.0029 11.1152 78.5049 10.418C78.0127 9.7207 77.3975 9.37207 76.6592 9.37207C75.9326 9.37207 75.3525 9.67969 74.9189 10.2949C74.374 11.0801 74.1016 12.5303 74.1016 14.6455ZM82.4951 14.6455C82.4951 13.1221 82.6504 11.8975 82.9609 10.9717C83.2773 10.04 83.7432 9.32227 84.3584 8.81836C84.9795 8.31445 85.7588 8.0625 86.6963 8.0625C87.3877 8.0625 87.9941 8.20312 88.5156 8.48438C89.0371 8.75977 89.4678 9.16113 89.8076 9.68848C90.1475 10.21 90.4141 10.8486 90.6074 11.6045C90.8008 12.3545 90.8975 13.3682 90.8975 14.6455C90.8975 16.1572 90.7422 17.3789 90.4316 18.3105C90.1211 19.2363 89.6553 19.9541 89.0342 20.4639C88.4189 20.9678 87.6396 21.2197 86.6963 21.2197C85.4541 21.2197 84.4785 20.7744 83.7695 19.8838C82.9199 18.8115 82.4951 17.0654 82.4951 14.6455ZM84.1211 14.6455C84.1211 16.7607 84.3672 18.1699 84.8594 18.873C85.3574 19.5703 85.9697 19.9189 86.6963 19.9189C87.4229 19.9189 88.0322 19.5674 88.5244 18.8643C89.0225 18.1611 89.2715 16.7549 89.2715 14.6455C89.2715 12.5244 89.0225 11.1152 88.5244 10.418C88.0322 9.7207 87.417 9.37207 86.6787 9.37207C85.9521 9.37207 85.3721 9.67969 84.9385 10.2949C84.3936 11.0801 84.1211 12.5303 84.1211 14.6455ZM92.5322 16.1045V14.3027C93.1533 13.5996 93.9678 13.248 94.9756 13.248C95.3271 13.248 95.6963 13.3008 96.083 13.4062C96.4697 13.5059 97.0205 13.708 97.7354 14.0127C98.1396 14.1826 98.4414 14.2939 98.6406 14.3467C98.8457 14.3994 99.0508 14.4258 99.2559 14.4258C99.6367 14.4258 100.029 14.3115 100.434 14.083C100.844 13.8545 101.207 13.5674 101.523 13.2217V15.085C101.148 15.4365 100.768 15.6914 100.381 15.8496C100 16.0078 99.5693 16.0869 99.0889 16.0869C98.7373 16.0869 98.4004 16.0459 98.0781 15.9639C97.7617 15.8818 97.2549 15.6855 96.5576 15.375C95.8662 15.0645 95.2891 14.9092 94.8262 14.9092C94.4512 14.9092 94.0967 14.9912 93.7627 15.1553C93.4346 15.3135 93.0244 15.6299 92.5322 16.1045Z" fill="black"/>
<path d="M62.4648 96.5859L64.0469 96.375C64.2285 97.2715 64.5361 97.9189 64.9697 98.3174C65.4092 98.71 65.9424 98.9062 66.5693 98.9062C67.3135 98.9062 67.9404 98.6484 68.4502 98.1328C68.9658 97.6172 69.2236 96.9785 69.2236 96.2168C69.2236 95.4902 68.9863 94.8926 68.5117 94.4238C68.0371 93.9492 67.4336 93.7119 66.7012 93.7119C66.4023 93.7119 66.0303 93.7705 65.585 93.8877L65.7607 92.499C65.8662 92.5107 65.9512 92.5166 66.0156 92.5166C66.6895 92.5166 67.2959 92.3408 67.835 91.9893C68.374 91.6377 68.6436 91.0957 68.6436 90.3633C68.6436 89.7832 68.4473 89.3027 68.0547 88.9219C67.6621 88.541 67.1553 88.3506 66.5342 88.3506C65.9189 88.3506 65.4062 88.5439 64.9961 88.9307C64.5859 89.3174 64.3223 89.8975 64.2051 90.6709L62.623 90.3896C62.8164 89.3291 63.2559 88.5088 63.9414 87.9287C64.627 87.3428 65.4795 87.0498 66.499 87.0498C67.2021 87.0498 67.8496 87.2021 68.4414 87.5068C69.0332 87.8057 69.4844 88.2158 69.7949 88.7373C70.1113 89.2588 70.2695 89.8125 70.2695 90.3984C70.2695 90.9551 70.1201 91.4619 69.8213 91.9189C69.5225 92.376 69.0801 92.7393 68.4941 93.0088C69.2559 93.1846 69.8477 93.5508 70.2695 94.1074C70.6914 94.6582 70.9023 95.3496 70.9023 96.1816C70.9023 97.3066 70.4922 98.2617 69.6719 99.0469C68.8516 99.8262 67.8145 100.216 66.5605 100.216C65.4297 100.216 64.4893 99.8789 63.7393 99.2051C62.9951 98.5312 62.5703 97.6582 62.4648 96.5859ZM72.4756 93.6328C72.4756 92.1094 72.6309 90.8848 72.9414 89.959C73.2578 89.0273 73.7236 88.3096 74.3389 87.8057C74.96 87.3018 75.7393 87.0498 76.6768 87.0498C77.3682 87.0498 77.9746 87.1904 78.4961 87.4717C79.0176 87.7471 79.4482 88.1484 79.7881 88.6758C80.1279 89.1973 80.3945 89.8359 80.5879 90.5918C80.7812 91.3418 80.8779 92.3555 80.8779 93.6328C80.8779 95.1445 80.7227 96.3662 80.4121 97.2979C80.1016 98.2236 79.6357 98.9414 79.0146 99.4512C78.3994 99.9551 77.6201 100.207 76.6768 100.207C75.4346 100.207 74.459 99.7617 73.75 98.8711C72.9004 97.7988 72.4756 96.0527 72.4756 93.6328ZM74.1016 93.6328C74.1016 95.748 74.3477 97.1572 74.8398 97.8604C75.3379 98.5576 75.9502 98.9062 76.6768 98.9062C77.4033 98.9062 78.0127 98.5547 78.5049 97.8516C79.0029 97.1484 79.252 95.7422 79.252 93.6328C79.252 91.5117 79.0029 90.1025 78.5049 89.4053C78.0127 88.708 77.3975 88.3594 76.6592 88.3594C75.9326 88.3594 75.3525 88.667 74.9189 89.2822C74.374 90.0674 74.1016 91.5176 74.1016 93.6328ZM83.3828 99.9873V98.1855H85.1846V99.9873H83.3828ZM93.4639 99.9873H91.8818V89.9062C91.501 90.2695 91 90.6328 90.3789 90.9961C89.7637 91.3594 89.21 91.6318 88.7178 91.8135V90.2842C89.6025 89.8682 90.376 89.3643 91.0381 88.7725C91.7002 88.1807 92.1689 87.6064 92.4443 87.0498H93.4639V99.9873ZM97.542 95.0918V93.29C98.1631 92.5869 98.9775 92.2354 99.9854 92.2354C100.337 92.2354 100.706 92.2881 101.093 92.3936C101.479 92.4932 102.03 92.6953 102.745 93C103.149 93.1699 103.451 93.2812 103.65 93.334C103.855 93.3867 104.061 93.4131 104.266 93.4131C104.646 93.4131 105.039 93.2988 105.443 93.0703C105.854 92.8418 106.217 92.5547 106.533 92.209V94.0723C106.158 94.4238 105.777 94.6787 105.391 94.8369C105.01 94.9951 104.579 95.0742 104.099 95.0742C103.747 95.0742 103.41 95.0332 103.088 94.9512C102.771 94.8691 102.265 94.6729 101.567 94.3623C100.876 94.0518 100.299 93.8965 99.8359 93.8965C99.4609 93.8965 99.1064 93.9785 98.7725 94.1426C98.4443 94.3008 98.0342 94.6172 97.542 95.0918ZM108.036 96.6123L109.697 96.4717C109.82 97.2803 110.104 97.8896 110.55 98.2998C111.001 98.7041 111.543 98.9062 112.176 98.9062C112.938 98.9062 113.582 98.6191 114.109 98.0449C114.637 97.4707 114.9 96.709 114.9 95.7598C114.9 94.8574 114.646 94.1455 114.136 93.624C113.632 93.1025 112.97 92.8418 112.149 92.8418C111.64 92.8418 111.18 92.959 110.77 93.1934C110.359 93.4219 110.037 93.7207 109.803 94.0898L108.317 93.8965L109.565 87.2783H115.973V88.79H110.831L110.137 92.2529C110.91 91.7139 111.722 91.4443 112.571 91.4443C113.696 91.4443 114.646 91.834 115.419 92.6133C116.192 93.3926 116.579 94.3945 116.579 95.6191C116.579 96.7852 116.239 97.793 115.56 98.6426C114.733 99.6855 113.605 100.207 112.176 100.207C111.004 100.207 110.046 99.8789 109.302 99.2227C108.563 98.5664 108.142 97.6963 108.036 96.6123ZM118.056 93.6328C118.056 92.1094 118.211 90.8848 118.521 89.959C118.838 89.0273 119.304 88.3096 119.919 87.8057C120.54 87.3018 121.319 87.0498 122.257 87.0498C122.948 87.0498 123.555 87.1904 124.076 87.4717C124.598 87.7471 125.028 88.1484 125.368 88.6758C125.708 89.1973 125.975 89.8359 126.168 90.5918C126.361 91.3418 126.458 92.3555 126.458 93.6328C126.458 95.1445 126.303 96.3662 125.992 97.2979C125.682 98.2236 125.216 98.9414 124.595 99.4512C123.979 99.9551 123.2 100.207 122.257 100.207C121.015 100.207 120.039 99.7617 119.33 98.8711C118.48 97.7988 118.056 96.0527 118.056 93.6328ZM119.682 93.6328C119.682 95.748 119.928 97.1572 120.42 97.8604C120.918 98.5576 121.53 98.9062 122.257 98.9062C122.983 98.9062 123.593 98.5547 124.085 97.8516C124.583 97.1484 124.832 95.7422 124.832 93.6328C124.832 91.5117 124.583 90.1025 124.085 89.4053C123.593 88.708 122.978 88.3594 122.239 88.3594C121.513 88.3594 120.933 88.667 120.499 89.2822C119.954 90.0674 119.682 91.5176 119.682 93.6328Z" fill="black"/>
<path d="M70.7705 137.96V139.481H62.2539C62.2422 139.1 62.3037 138.734 62.4385 138.382C62.6553 137.802 63.001 137.231 63.4756 136.668C63.9561 136.106 64.6475 135.456 65.5498 134.717C66.9502 133.569 67.8965 132.661 68.3887 131.993C68.8809 131.319 69.127 130.683 69.127 130.085C69.127 129.458 68.9014 128.931 68.4502 128.503C68.0049 128.07 67.4219 127.853 66.7012 127.853C65.9395 127.853 65.3301 128.082 64.873 128.539C64.416 128.996 64.1846 129.628 64.1787 130.437L62.5527 130.27C62.6641 129.057 63.083 128.134 63.8096 127.501C64.5361 126.863 65.5117 126.543 66.7363 126.543C67.9727 126.543 68.9512 126.886 69.6719 127.572C70.3926 128.257 70.7529 129.107 70.7529 130.121C70.7529 130.636 70.6475 131.143 70.4365 131.641C70.2256 132.139 69.874 132.664 69.3818 133.214C68.8955 133.765 68.084 134.521 66.9473 135.482C65.998 136.279 65.3887 136.821 65.1191 137.108C64.8496 137.389 64.627 137.673 64.4512 137.96H70.7705ZM72.4756 133.126C72.4756 131.603 72.6309 130.378 72.9414 129.453C73.2578 128.521 73.7236 127.803 74.3389 127.299C74.96 126.795 75.7393 126.543 76.6768 126.543C77.3682 126.543 77.9746 126.684 78.4961 126.965C79.0176 127.241 79.4482 127.642 79.7881 128.169C80.1279 128.691 80.3945 129.33 80.5879 130.085C80.7812 130.835 80.8779 131.849 80.8779 133.126C80.8779 134.638 80.7227 135.86 80.4121 136.792C80.1016 137.717 79.6357 138.435 79.0146 138.945C78.3994 139.449 77.6201 139.701 76.6768 139.701C75.4346 139.701 74.459 139.255 73.75 138.365C72.9004 137.292 72.4756 135.546 72.4756 133.126ZM74.1016 133.126C74.1016 135.242 74.3477 136.651 74.8398 137.354C75.3379 138.051 75.9502 138.4 76.6768 138.4C77.4033 138.4 78.0127 138.048 78.5049 137.345C79.0029 136.642 79.252 135.236 79.252 133.126C79.252 131.005 79.0029 129.596 78.5049 128.899C78.0127 128.202 77.3975 127.853 76.6592 127.853C75.9326 127.853 75.3525 128.161 74.9189 128.776C74.374 129.561 74.1016 131.011 74.1016 133.126ZM83.3828 139.481V137.679H85.1846V139.481H83.3828ZM93.4639 139.481H91.8818V129.4C91.501 129.763 91 130.126 90.3789 130.49C89.7637 130.853 89.21 131.125 88.7178 131.307V129.778C89.6025 129.362 90.376 128.858 91.0381 128.266C91.7002 127.674 92.1689 127.1 92.4443 126.543H93.4639V139.481ZM97.542 134.585V132.784C98.1631 132.081 98.9775 131.729 99.9854 131.729C100.337 131.729 100.706 131.782 101.093 131.887C101.479 131.987 102.03 132.189 102.745 132.494C103.149 132.664 103.451 132.775 103.65 132.828C103.855 132.88 104.061 132.907 104.266 132.907C104.646 132.907 105.039 132.792 105.443 132.564C105.854 132.335 106.217 132.048 106.533 131.703V133.566C106.158 133.917 105.777 134.172 105.391 134.331C105.01 134.489 104.579 134.568 104.099 134.568C103.747 134.568 103.41 134.527 103.088 134.445C102.771 134.363 102.265 134.167 101.567 133.856C100.876 133.545 100.299 133.39 99.8359 133.39C99.4609 133.39 99.1064 133.472 98.7725 133.636C98.4443 133.794 98.0342 134.111 97.542 134.585ZM108.045 136.08L109.627 135.869C109.809 136.765 110.116 137.413 110.55 137.811C110.989 138.204 111.522 138.4 112.149 138.4C112.894 138.4 113.521 138.142 114.03 137.626C114.546 137.111 114.804 136.472 114.804 135.71C114.804 134.984 114.566 134.386 114.092 133.917C113.617 133.443 113.014 133.206 112.281 133.206C111.982 133.206 111.61 133.264 111.165 133.381L111.341 131.993C111.446 132.004 111.531 132.01 111.596 132.01C112.27 132.01 112.876 131.834 113.415 131.483C113.954 131.131 114.224 130.589 114.224 129.857C114.224 129.277 114.027 128.796 113.635 128.416C113.242 128.035 112.735 127.844 112.114 127.844C111.499 127.844 110.986 128.038 110.576 128.424C110.166 128.811 109.902 129.391 109.785 130.165L108.203 129.883C108.396 128.823 108.836 128.002 109.521 127.422C110.207 126.836 111.06 126.543 112.079 126.543C112.782 126.543 113.43 126.696 114.021 127C114.613 127.299 115.064 127.709 115.375 128.231C115.691 128.752 115.85 129.306 115.85 129.892C115.85 130.449 115.7 130.956 115.401 131.413C115.103 131.87 114.66 132.233 114.074 132.502C114.836 132.678 115.428 133.044 115.85 133.601C116.271 134.152 116.482 134.843 116.482 135.675C116.482 136.8 116.072 137.755 115.252 138.541C114.432 139.32 113.395 139.709 112.141 139.709C111.01 139.709 110.069 139.373 109.319 138.699C108.575 138.025 108.15 137.152 108.045 136.08ZM118.056 133.126C118.056 131.603 118.211 130.378 118.521 129.453C118.838 128.521 119.304 127.803 119.919 127.299C120.54 126.795 121.319 126.543 122.257 126.543C122.948 126.543 123.555 126.684 124.076 126.965C124.598 127.241 125.028 127.642 125.368 128.169C125.708 128.691 125.975 129.33 126.168 130.085C126.361 130.835 126.458 131.849 126.458 133.126C126.458 134.638 126.303 135.86 125.992 136.792C125.682 137.717 125.216 138.435 124.595 138.945C123.979 139.449 123.2 139.701 122.257 139.701C121.015 139.701 120.039 139.255 119.33 138.365C118.48 137.292 118.056 135.546 118.056 133.126ZM119.682 133.126C119.682 135.242 119.928 136.651 120.42 137.354C120.918 138.051 121.53 138.4 122.257 138.4C122.983 138.4 123.593 138.048 124.085 137.345C124.583 136.642 124.832 135.236 124.832 133.126C124.832 131.005 124.583 129.596 124.085 128.899C123.593 128.202 122.978 127.853 122.239 127.853C121.513 127.853 120.933 128.161 120.499 128.776C119.954 129.561 119.682 131.011 119.682 133.126Z" fill="black"/>
<path d="M68.415 177.975H66.833V167.894C66.4521 168.257 65.9512 168.62 65.3301 168.983C64.7148 169.347 64.1611 169.619 63.6689 169.801V168.271C64.5537 167.855 65.3271 167.352 65.9893 166.76C66.6514 166.168 67.1201 165.594 67.3955 165.037H68.415V177.975ZM72.4756 171.62C72.4756 170.097 72.6309 168.872 72.9414 167.946C73.2578 167.015 73.7236 166.297 74.3389 165.793C74.96 165.289 75.7393 165.037 76.6768 165.037C77.3682 165.037 77.9746 165.178 78.4961 165.459C79.0176 165.734 79.4482 166.136 79.7881 166.663C80.1279 167.185 80.3945 167.823 80.5879 168.579C80.7812 169.329 80.8779 170.343 80.8779 171.62C80.8779 173.132 80.7227 174.354 80.4121 175.285C80.1016 176.211 79.6357 176.929 79.0146 177.438C78.3994 177.942 77.6201 178.194 76.6768 178.194C75.4346 178.194 74.459 177.749 73.75 176.858C72.9004 175.786 72.4756 174.04 72.4756 171.62ZM74.1016 171.62C74.1016 173.735 74.3477 175.145 74.8398 175.848C75.3379 176.545 75.9502 176.894 76.6768 176.894C77.4033 176.894 78.0127 176.542 78.5049 175.839C79.0029 175.136 79.252 173.729 79.252 171.62C79.252 169.499 79.0029 168.09 78.5049 167.393C78.0127 166.695 77.3975 166.347 76.6592 166.347C75.9326 166.347 75.3525 166.654 74.9189 167.27C74.374 168.055 74.1016 169.505 74.1016 171.62ZM83.3828 177.975V176.173H85.1846V177.975H83.3828ZM93.4639 177.975H91.8818V167.894C91.501 168.257 91 168.62 90.3789 168.983C89.7637 169.347 89.21 169.619 88.7178 169.801V168.271C89.6025 167.855 90.376 167.352 91.0381 166.76C91.7002 166.168 92.1689 165.594 92.4443 165.037H93.4639V177.975ZM97.542 173.079V171.277C98.1631 170.574 98.9775 170.223 99.9854 170.223C100.337 170.223 100.706 170.275 101.093 170.381C101.479 170.48 102.03 170.683 102.745 170.987C103.149 171.157 103.451 171.269 103.65 171.321C103.855 171.374 104.061 171.4 104.266 171.4C104.646 171.4 105.039 171.286 105.443 171.058C105.854 170.829 106.217 170.542 106.533 170.196V172.06C106.158 172.411 105.777 172.666 105.391 172.824C105.01 172.982 104.579 173.062 104.099 173.062C103.747 173.062 103.41 173.021 103.088 172.938C102.771 172.856 102.265 172.66 101.567 172.35C100.876 172.039 100.299 171.884 99.8359 171.884C99.4609 171.884 99.1064 171.966 98.7725 172.13C98.4443 172.288 98.0342 172.604 97.542 173.079ZM116.351 176.454V177.975H107.834C107.822 177.594 107.884 177.228 108.019 176.876C108.235 176.296 108.581 175.725 109.056 175.162C109.536 174.6 110.228 173.949 111.13 173.211C112.53 172.062 113.477 171.154 113.969 170.486C114.461 169.812 114.707 169.177 114.707 168.579C114.707 167.952 114.481 167.425 114.03 166.997C113.585 166.563 113.002 166.347 112.281 166.347C111.52 166.347 110.91 166.575 110.453 167.032C109.996 167.489 109.765 168.122 109.759 168.931L108.133 168.764C108.244 167.551 108.663 166.628 109.39 165.995C110.116 165.356 111.092 165.037 112.316 165.037C113.553 165.037 114.531 165.38 115.252 166.065C115.973 166.751 116.333 167.601 116.333 168.614C116.333 169.13 116.228 169.637 116.017 170.135C115.806 170.633 115.454 171.157 114.962 171.708C114.476 172.259 113.664 173.015 112.527 173.976C111.578 174.772 110.969 175.314 110.699 175.602C110.43 175.883 110.207 176.167 110.031 176.454H116.351ZM118.056 171.62C118.056 170.097 118.211 168.872 118.521 167.946C118.838 167.015 119.304 166.297 119.919 165.793C120.54 165.289 121.319 165.037 122.257 165.037C122.948 165.037 123.555 165.178 124.076 165.459C124.598 165.734 125.028 166.136 125.368 166.663C125.708 167.185 125.975 167.823 126.168 168.579C126.361 169.329 126.458 170.343 126.458 171.62C126.458 173.132 126.303 174.354 125.992 175.285C125.682 176.211 125.216 176.929 124.595 177.438C123.979 177.942 123.2 178.194 122.257 178.194C121.015 178.194 120.039 177.749 119.33 176.858C118.48 175.786 118.056 174.04 118.056 171.62ZM119.682 171.62C119.682 173.735 119.928 175.145 120.42 175.848C120.918 176.545 121.53 176.894 122.257 176.894C122.983 176.894 123.593 176.542 124.085 175.839C124.583 175.136 124.832 173.729 124.832 171.62C124.832 169.499 124.583 168.09 124.085 167.393C123.593 166.695 122.978 166.347 122.239 166.347C121.513 166.347 120.933 166.654 120.499 167.27C119.954 168.055 119.682 169.505 119.682 171.62Z" fill="black"/>
<path d="M62.4561 211.625L64.1172 211.484C64.2402 212.293 64.5244 212.902 64.9697 213.312C65.4209 213.717 65.9629 213.919 66.5957 213.919C67.3574 213.919 68.002 213.632 68.5293 213.058C69.0566 212.483 69.3203 211.722 69.3203 210.772C69.3203 209.87 69.0654 209.158 68.5557 208.637C68.0518 208.115 67.3896 207.854 66.5693 207.854C66.0596 207.854 65.5996 207.972 65.1895 208.206C64.7793 208.435 64.457 208.733 64.2227 209.103L62.7373 208.909L63.9854 202.291H70.3926V203.803H65.251L64.5566 207.266C65.3301 206.727 66.1416 206.457 66.9912 206.457C68.1162 206.457 69.0654 206.847 69.8389 207.626C70.6123 208.405 70.999 209.407 70.999 210.632C70.999 211.798 70.6592 212.806 69.9795 213.655C69.1533 214.698 68.0254 215.22 66.5957 215.22C65.4238 215.22 64.4658 214.892 63.7217 214.235C62.9834 213.579 62.5615 212.709 62.4561 211.625ZM73.3633 215V213.198H75.165V215H73.3633ZM83.4443 215H81.8623V204.919C81.4814 205.282 80.9805 205.646 80.3594 206.009C79.7441 206.372 79.1904 206.645 78.6982 206.826V205.297C79.583 204.881 80.3564 204.377 81.0186 203.785C81.6807 203.193 82.1494 202.619 82.4248 202.062H83.4443V215ZM87.5225 210.104V208.303C88.1436 207.6 88.958 207.248 89.9658 207.248C90.3174 207.248 90.6865 207.301 91.0732 207.406C91.46 207.506 92.0107 207.708 92.7256 208.013C93.1299 208.183 93.4316 208.294 93.6309 208.347C93.8359 208.399 94.041 208.426 94.2461 208.426C94.627 208.426 95.0195 208.312 95.4238 208.083C95.834 207.854 96.1973 207.567 96.5137 207.222V209.085C96.1387 209.437 95.7578 209.691 95.3711 209.85C94.9902 210.008 94.5596 210.087 94.0791 210.087C93.7275 210.087 93.3906 210.046 93.0684 209.964C92.752 209.882 92.2451 209.686 91.5479 209.375C90.8564 209.064 90.2793 208.909 89.8164 208.909C89.4414 208.909 89.0869 208.991 88.7529 209.155C88.4248 209.313 88.0146 209.63 87.5225 210.104ZM103.976 215H102.394V204.919C102.013 205.282 101.512 205.646 100.891 206.009C100.275 206.372 99.7217 206.645 99.2295 206.826V205.297C100.114 204.881 100.888 204.377 101.55 203.785C102.212 203.193 102.681 202.619 102.956 202.062H103.976V215ZM108.036 208.646C108.036 207.122 108.191 205.897 108.502 204.972C108.818 204.04 109.284 203.322 109.899 202.818C110.521 202.314 111.3 202.062 112.237 202.062C112.929 202.062 113.535 202.203 114.057 202.484C114.578 202.76 115.009 203.161 115.349 203.688C115.688 204.21 115.955 204.849 116.148 205.604C116.342 206.354 116.438 207.368 116.438 208.646C116.438 210.157 116.283 211.379 115.973 212.311C115.662 213.236 115.196 213.954 114.575 214.464C113.96 214.968 113.181 215.22 112.237 215.22C110.995 215.22 110.02 214.774 109.311 213.884C108.461 212.812 108.036 211.065 108.036 208.646ZM109.662 208.646C109.662 210.761 109.908 212.17 110.4 212.873C110.898 213.57 111.511 213.919 112.237 213.919C112.964 213.919 113.573 213.567 114.065 212.864C114.563 212.161 114.812 210.755 114.812 208.646C114.812 206.524 114.563 205.115 114.065 204.418C113.573 203.721 112.958 203.372 112.22 203.372C111.493 203.372 110.913 203.68 110.479 204.295C109.935 205.08 109.662 206.53 109.662 208.646Z" fill="black"/>
<path d="M70.7705 250.505V252.025H62.2539C62.2422 251.645 62.3037 251.278 62.4385 250.927C62.6553 250.347 63.001 249.775 63.4756 249.213C63.9561 248.65 64.6475 248 65.5498 247.262C66.9502 246.113 67.8965 245.205 68.3887 244.537C68.8809 243.863 69.127 243.228 69.127 242.63C69.127 242.003 68.9014 241.476 68.4502 241.048C68.0049 240.614 67.4219 240.397 66.7012 240.397C65.9395 240.397 65.3301 240.626 64.873 241.083C64.416 241.54 64.1846 242.173 64.1787 242.981L62.5527 242.814C62.6641 241.602 63.083 240.679 63.8096 240.046C64.5361 239.407 65.5117 239.088 66.7363 239.088C67.9727 239.088 68.9512 239.431 69.6719 240.116C70.3926 240.802 70.7529 241.651 70.7529 242.665C70.7529 243.181 70.6475 243.688 70.4365 244.186C70.2256 244.684 69.874 245.208 69.3818 245.759C68.8955 246.31 68.084 247.065 66.9473 248.026C65.998 248.823 65.3887 249.365 65.1191 249.652C64.8496 249.934 64.627 250.218 64.4512 250.505H70.7705ZM73.3633 252.025V250.224H75.165V252.025H73.3633ZM83.4443 252.025H81.8623V241.944C81.4814 242.308 80.9805 242.671 80.3594 243.034C79.7441 243.397 79.1904 243.67 78.6982 243.852V242.322C79.583 241.906 80.3564 241.402 81.0186 240.811C81.6807 240.219 82.1494 239.645 82.4248 239.088H83.4443V252.025ZM87.5225 247.13V245.328C88.1436 244.625 88.958 244.273 89.9658 244.273C90.3174 244.273 90.6865 244.326 91.0732 244.432C91.46 244.531 92.0107 244.733 92.7256 245.038C93.1299 245.208 93.4316 245.319 93.6309 245.372C93.8359 245.425 94.041 245.451 94.2461 245.451C94.627 245.451 95.0195 245.337 95.4238 245.108C95.834 244.88 96.1973 244.593 96.5137 244.247V246.11C96.1387 246.462 95.7578 246.717 95.3711 246.875C94.9902 247.033 94.5596 247.112 94.0791 247.112C93.7275 247.112 93.3906 247.071 93.0684 246.989C92.752 246.907 92.2451 246.711 91.5479 246.4C90.8564 246.09 90.2793 245.935 89.8164 245.935C89.4414 245.935 89.0869 246.017 88.7529 246.181C88.4248 246.339 88.0146 246.655 87.5225 247.13ZM103.976 252.025H102.394V241.944C102.013 242.308 101.512 242.671 100.891 243.034C100.275 243.397 99.7217 243.67 99.2295 243.852V242.322C100.114 241.906 100.888 241.402 101.55 240.811C102.212 240.219 102.681 239.645 102.956 239.088H103.976V252.025ZM108.036 248.65L109.697 248.51C109.82 249.318 110.104 249.928 110.55 250.338C111.001 250.742 111.543 250.944 112.176 250.944C112.938 250.944 113.582 250.657 114.109 250.083C114.637 249.509 114.9 248.747 114.9 247.798C114.9 246.896 114.646 246.184 114.136 245.662C113.632 245.141 112.97 244.88 112.149 244.88C111.64 244.88 111.18 244.997 110.77 245.231C110.359 245.46 110.037 245.759 109.803 246.128L108.317 245.935L109.565 239.316H115.973V240.828H110.831L110.137 244.291C110.91 243.752 111.722 243.482 112.571 243.482C113.696 243.482 114.646 243.872 115.419 244.651C116.192 245.431 116.579 246.433 116.579 247.657C116.579 248.823 116.239 249.831 115.56 250.681C114.733 251.724 113.605 252.245 112.176 252.245C111.004 252.245 110.046 251.917 109.302 251.261C108.563 250.604 108.142 249.734 108.036 248.65Z" fill="black"/>
<path d="M68.415 289.051H66.833V278.97C66.4521 279.333 65.9512 279.696 65.3301 280.06C64.7148 280.423 64.1611 280.695 63.6689 280.877V279.348C64.5537 278.932 65.3271 278.428 65.9893 277.836C66.6514 277.244 67.1201 276.67 67.3955 276.113H68.415V289.051ZM73.3633 289.051V287.249H75.165V289.051H73.3633ZM83.4443 289.051H81.8623V278.97C81.4814 279.333 80.9805 279.696 80.3594 280.06C79.7441 280.423 79.1904 280.695 78.6982 280.877V279.348C79.583 278.932 80.3564 278.428 81.0186 277.836C81.6807 277.244 82.1494 276.67 82.4248 276.113H83.4443V289.051ZM87.5225 284.155V282.354C88.1436 281.65 88.958 281.299 89.9658 281.299C90.3174 281.299 90.6865 281.352 91.0732 281.457C91.46 281.557 92.0107 281.759 92.7256 282.063C93.1299 282.233 93.4316 282.345 93.6309 282.397C93.8359 282.45 94.041 282.477 94.2461 282.477C94.627 282.477 95.0195 282.362 95.4238 282.134C95.834 281.905 96.1973 281.618 96.5137 281.272V283.136C96.1387 283.487 95.7578 283.742 95.3711 283.9C94.9902 284.059 94.5596 284.138 94.0791 284.138C93.7275 284.138 93.3906 284.097 93.0684 284.015C92.752 283.933 92.2451 283.736 91.5479 283.426C90.8564 283.115 90.2793 282.96 89.8164 282.96C89.4414 282.96 89.0869 283.042 88.7529 283.206C88.4248 283.364 88.0146 283.681 87.5225 284.155ZM106.331 287.53V289.051H97.8145C97.8027 288.67 97.8643 288.304 97.999 287.952C98.2158 287.372 98.5615 286.801 99.0361 286.238C99.5166 285.676 100.208 285.025 101.11 284.287C102.511 283.139 103.457 282.23 103.949 281.562C104.441 280.889 104.688 280.253 104.688 279.655C104.688 279.028 104.462 278.501 104.011 278.073C103.565 277.64 102.982 277.423 102.262 277.423C101.5 277.423 100.891 277.651 100.434 278.108C99.9766 278.565 99.7451 279.198 99.7393 280.007L98.1133 279.84C98.2246 278.627 98.6436 277.704 99.3701 277.071C100.097 276.433 101.072 276.113 102.297 276.113C103.533 276.113 104.512 276.456 105.232 277.142C105.953 277.827 106.313 278.677 106.313 279.69C106.313 280.206 106.208 280.713 105.997 281.211C105.786 281.709 105.435 282.233 104.942 282.784C104.456 283.335 103.645 284.091 102.508 285.052C101.559 285.849 100.949 286.391 100.68 286.678C100.41 286.959 100.188 287.243 100.012 287.53H106.331Z" fill="black"/>
<path d="M62.4561 319.722C62.4561 318.198 62.6113 316.974 62.9219 316.048C63.2383 315.116 63.7041 314.398 64.3193 313.895C64.9404 313.391 65.7197 313.139 66.6572 313.139C67.3486 313.139 67.9551 313.279 68.4766 313.561C68.998 313.836 69.4287 314.237 69.7686 314.765C70.1084 315.286 70.375 315.925 70.5684 316.681C70.7617 317.431 70.8584 318.444 70.8584 319.722C70.8584 321.233 70.7031 322.455 70.3926 323.387C70.082 324.312 69.6162 325.03 68.9951 325.54C68.3799 326.044 67.6006 326.296 66.6572 326.296C65.415 326.296 64.4395 325.851 63.7305 324.96C62.8809 323.888 62.4561 322.142 62.4561 319.722ZM64.082 319.722C64.082 321.837 64.3281 323.246 64.8203 323.949C65.3184 324.646 65.9307 324.995 66.6572 324.995C67.3838 324.995 67.9932 324.644 68.4854 323.94C68.9834 323.237 69.2324 321.831 69.2324 319.722C69.2324 317.601 68.9834 316.191 68.4854 315.494C67.9932 314.797 67.3779 314.448 66.6396 314.448C65.9131 314.448 65.333 314.756 64.8994 315.371C64.3545 316.156 64.082 317.606 64.082 319.722ZM72.4932 321.181V319.379C73.1143 318.676 73.9287 318.324 74.9365 318.324C75.2881 318.324 75.6572 318.377 76.0439 318.482C76.4307 318.582 76.9814 318.784 77.6963 319.089C78.1006 319.259 78.4023 319.37 78.6016 319.423C78.8066 319.476 79.0117 319.502 79.2168 319.502C79.5977 319.502 79.9902 319.388 80.3945 319.159C80.8047 318.931 81.168 318.644 81.4844 318.298V320.161C81.1094 320.513 80.7285 320.768 80.3418 320.926C79.9609 321.084 79.5303 321.163 79.0498 321.163C78.6982 321.163 78.3613 321.122 78.0391 321.04C77.7227 320.958 77.2158 320.762 76.5186 320.451C75.8271 320.141 75.25 319.985 74.7871 319.985C74.4121 319.985 74.0576 320.067 73.7236 320.231C73.3955 320.39 72.9854 320.706 72.4932 321.181ZM88.9463 326.076H87.3643V315.995C86.9834 316.358 86.4824 316.722 85.8613 317.085C85.2461 317.448 84.6924 317.721 84.2002 317.902V316.373C85.085 315.957 85.8584 315.453 86.5205 314.861C87.1826 314.27 87.6514 313.695 87.9268 313.139H88.9463V326.076ZM93.8945 326.076V324.274H95.6963V326.076H93.8945ZM98.0166 319.722C98.0166 318.198 98.1719 316.974 98.4824 316.048C98.7988 315.116 99.2646 314.398 99.8799 313.895C100.501 313.391 101.28 313.139 102.218 313.139C102.909 313.139 103.516 313.279 104.037 313.561C104.559 313.836 104.989 314.237 105.329 314.765C105.669 315.286 105.936 315.925 106.129 316.681C106.322 317.431 106.419 318.444 106.419 319.722C106.419 321.233 106.264 322.455 105.953 323.387C105.643 324.312 105.177 325.03 104.556 325.54C103.94 326.044 103.161 326.296 102.218 326.296C100.976 326.296 100 325.851 99.291 324.96C98.4414 323.888 98.0166 322.142 98.0166 319.722ZM99.6426 319.722C99.6426 321.837 99.8887 323.246 100.381 323.949C100.879 324.646 101.491 324.995 102.218 324.995C102.944 324.995 103.554 324.644 104.046 323.94C104.544 323.237 104.793 321.831 104.793 319.722C104.793 317.601 104.544 316.191 104.046 315.494C103.554 314.797 102.938 314.448 102.2 314.448C101.474 314.448 100.894 314.756 100.46 315.371C99.915 316.156 99.6426 317.606 99.6426 319.722Z" fill="black"/>
<rect x="2.46826" y="39.4937" width="49.3671" height="29.6203" fill="#1D343D"/>
<rect x="2.46826" width="49.3671" height="29.6203" fill="black"/>
<rect x="2.46826" y="78.9873" width="49.3671" height="29.6203" fill="#354E18"/>
<rect x="2.46826" y="118.481" width="49.3671" height="29.6203" fill="#507626"/>
<rect x="2.46826" y="157.975" width="49.3671" height="27.1519" fill="#80A855"/>
<rect x="2.46826" y="195" width="49.3671" height="27.1519" fill="#A3C481"/>
<rect x="2.46826" y="232.025" width="49.3671" height="27.1519" fill="#C0D7AA"/>
<rect x="2.46826" y="269.051" width="49.3671" height="27.1519" fill="#DEEAD4"/>
<rect x="2.46826" y="306.076" width="49.3671" height="29.6203" fill="white"/>
</svg>
