<svg width="678" height="63" viewBox="0 0 678 63" fill="none" xmlns="http://www.w3.org/2000/svg">
<path d="M11.9797 39.0039H44.8469C46.5057 39.0039 47.7088 39.3958 48.4562 40.1797C49.2036 40.9453 49.5773 42.1758 49.5773 43.8711V60.8516H11.9797V39.0039ZM42.8234 43.3516H18.7336V56.5039H42.8234V43.3516ZM44.1633 31.375L8.88983 34.3555V28.9414C14.3768 24.2565 18.9797 18.2773 22.6984 11.0039H32.0773C29.0695 15.6706 26.1164 19.5443 23.218 22.625C21.1945 24.776 18.7245 26.9909 15.8078 29.2695L42.4406 27.5469C42.3312 27.3646 42.1763 27.0729 41.9758 26.6719C40.6633 24.2656 38.5578 21.1484 35.6594 17.3203H40.6633C46.6424 22.7891 51.2726 28.8138 54.5539 35.3945H45.7492C45.1659 33.8268 44.6372 32.487 44.1633 31.375ZM93.8687 25.6602C93.7047 24.8398 93.3401 23.6276 92.775 22.0234H95.3726C96.8857 24.1562 98.0706 26.4896 98.9273 29.0234H94.3883C94.2607 27.9479 94.1239 26.9818 93.9781 26.125L92.6383 28.5039H84.7906V25.9062C86.5953 24.612 88.2542 22.9167 89.7672 20.8203H85.4742V18.1953C86.7138 16.6094 87.7529 14.1758 88.5914 10.8945H93.2672C92.1917 13.7018 90.87 16.0534 89.3023 17.9492H91.4898C91.8362 17.2565 92.137 16.6458 92.3922 16.1172C92.5198 15.862 92.6838 15.5339 92.8844 15.1328H97.2594C95.9469 17.5938 94.6799 19.5625 93.4586 21.0391C92.3284 22.4062 90.7242 23.9466 88.6461 25.6602H93.8687ZM118.615 22.1055H120.939C122.434 24.2018 123.61 26.526 124.466 29.0781H119.955C119.845 28.1667 119.727 27.3555 119.599 26.6445L118.505 28.6406H110.795V26.0156C112.508 24.7396 114.121 23.0807 115.634 21.0391H111.041V18.4414C112.298 16.9284 113.42 14.4219 114.404 10.9219H119.216C118.268 13.6016 116.819 16.026 114.869 18.1953H117.384C117.694 17.5755 118.159 16.5911 118.779 15.2422H123.209C121.714 18.1406 120.183 20.4284 118.615 22.1055ZM118.423 22.3516C117.421 23.3906 116.163 24.5391 114.65 25.7969H119.435C119.235 24.8672 118.897 23.7188 118.423 22.3516ZM98.982 27.5195H107.021C108.735 27.5195 109.591 28.3763 109.591 30.0898V37.4453H98.982V37.1172H94.9625C94.7802 35.2578 94.3974 32.8607 93.814 29.9258H96.3297C97.5146 32.4596 98.3987 34.7383 98.982 36.7617V27.5195ZM105.982 34.6016V30.3906H102.591V34.6016H105.982ZM102.127 13.5195C101.962 12.4622 101.716 11.4141 101.388 10.375H104.615C105.344 11.25 106.046 12.2982 106.72 13.5195H110.466V16.3633H98.0523V13.5195H102.127ZM86.814 53.7969L88.564 44.6914H114.923V41.9844H87.4156V39.0039H117.302C119.526 39.0039 120.638 40.1159 120.638 42.3398V47.6719H93.7047L93.1851 50.8164H118.724C119.891 50.8164 120.739 51.0807 121.267 51.6094C121.796 52.138 122.06 52.9857 122.06 54.1523V57.625C122.06 59.0286 121.732 60.0221 121.076 60.6055C120.401 61.1706 119.28 61.4531 117.712 61.4531H102.537L101.607 58.4727H116.373V53.7969H86.814ZM98.5992 20.9844V18.3867H110.002V20.9844H98.5992ZM98.5992 25.5508V22.9531H110.002V25.5508H98.5992ZM88.8375 29.9258C88.801 30.3086 88.7646 30.7552 88.7281 31.2656C88.6005 33.1797 88.2815 35.2214 87.7711 37.3906H83.0406C84.0614 35.7318 84.7542 34.5013 85.1187 33.6992C85.538 32.7695 85.9664 31.5117 86.4039 29.9258H88.8375ZM119.955 29.9258H122.279C123.518 31.9857 124.585 34.3464 125.478 37.0078H121.322C121.304 36.7891 121.258 36.388 121.185 35.8047C121.058 34.5651 120.647 32.6055 119.955 29.9258ZM114.677 29.9258L114.65 30.6914C114.541 32.806 114.313 34.9935 113.966 37.2539H109.619C110.913 34.7201 111.824 32.2773 112.353 29.9258H114.677ZM83.3961 41.1641C82.7763 47.2526 82.12 51.6914 81.4273 54.4805C81.0627 55.9206 80.4065 58.0807 79.4586 60.9609H72.9781C74.8193 57.2057 76.2411 53.5052 77.2437 49.8594C77.9182 47.3802 78.5198 44.4818 79.0484 41.1641H83.3961ZM73.3883 26.7539H77.4625C79.6135 30.1263 81.3726 33.681 82.7398 37.418H76.7515C76.2958 34.2461 75.1747 30.6914 73.3883 26.7539ZM74.1812 12.5625H78.3648C79.4039 14.2396 80.0966 15.4062 80.443 16.0625C81.1539 17.4115 82.1474 19.8815 83.4234 23.4727H77.2437C76.9885 21.2669 76.6148 19.3529 76.1226 17.7305C75.7216 16.3997 75.0745 14.6771 74.1812 12.5625ZM89.7398 30.0352H91.982C92.857 32.2591 93.568 34.6471 94.1148 37.1992H90.0406C90.0042 35.5221 89.9404 33.7539 89.8492 31.8945C89.7945 31.0378 89.7581 30.418 89.7398 30.0352ZM117.877 30.0352C118.806 32.1497 119.617 34.4831 120.31 37.0352H116.427C116.318 35.1211 116.035 32.7878 115.58 30.0352H117.877ZM154.977 32.6055C152.607 33.8451 149.517 35.0208 145.707 36.1328V32.3867C149.444 30.9466 152.406 29.1875 154.594 27.1094C156.471 25.3411 158.076 23.1263 159.406 20.4648H166.844C165.896 22.1602 165.24 23.2812 164.875 23.8281H182.43V28.0938C179.513 31.375 176.15 34.2734 172.34 36.7891C176.842 38.5208 183.651 39.9883 192.766 41.1914V44.9648C181.81 43.7982 173.306 42.0026 167.254 39.5781C165.759 40.2708 164.328 40.8451 162.961 41.3008C160.555 42.1211 156.672 43.0326 151.312 44.0352H180.488C182.165 44.0352 183.396 44.4271 184.18 45.2109C184.964 45.9766 185.355 47.2161 185.355 48.9297V60.7969H149.863V44.2812C148.204 44.5547 145.552 44.9284 141.906 45.4023V41.4648C150.875 40.1706 157.437 38.6302 161.594 36.8438C158.932 35.3672 156.727 33.9544 154.977 32.6055ZM158.23 30.6367H161.238C163.116 32.0221 164.948 33.207 166.734 34.1914C169.378 32.569 171.911 30.5638 174.336 28.1758H161.32C160.573 28.8867 159.543 29.707 158.23 30.6367ZM156.316 56.4492H178.902V48.3828H156.316V56.4492ZM149.781 19.4531V27.2461H143.574V15.1055H164.082C163.954 13.7383 163.708 12.3529 163.344 10.9492H168.812C169.049 11.4596 169.414 12.0885 169.906 12.8359C170.234 13.3099 170.635 14.0664 171.109 15.1055H187.16C188.637 15.1055 189.712 15.4609 190.387 16.1719C191.079 16.8828 191.426 18.0221 191.426 19.5898V27.2461H185.219V19.4531H149.781ZM234.733 40.8906L234.295 41.1367C231.142 42.9779 227.496 44.5273 223.358 45.7852C220.623 46.6055 217.169 47.4167 212.995 48.2188V44.8555C221.034 42.7956 227.742 39.806 233.12 35.8867C232.737 35.3398 232.135 34.7109 231.315 34C226.01 36.1328 219.949 37.7279 213.131 38.7852V35.3945C220.733 33.681 226.721 31.3021 231.096 28.2578H219.776V23.9102H251.959V28.2578H240.448C238.771 29.6615 237.148 30.8555 235.58 31.8398C236.711 32.6602 237.458 33.2617 237.823 33.6445C239.172 35.0482 240.165 36.862 240.803 39.0859C242.662 38.138 244.176 37.1536 245.342 36.1328C246.837 34.8385 248.286 33.0794 249.69 30.8555H257.045C254.712 34.6654 251.868 37.6003 248.514 39.6602C249.28 41.8112 250.155 43.7253 251.139 45.4023C253.053 48.6654 256.17 51.8008 260.491 54.8086V58.8281C255.514 56.5495 251.832 54.1797 249.444 51.7188C247.347 49.5859 245.388 46.5872 243.565 42.7227L243.291 42.1211C242.362 42.4492 241.769 42.6497 241.514 42.7227C241.751 45.1107 241.87 48.1003 241.87 51.6914C241.87 56.0664 241.131 58.8737 239.655 60.1133C238.397 61.1888 236.51 61.7266 233.995 61.7266H226.448L225.327 57.4062H232.272C233.293 57.4062 234.013 57.1693 234.432 56.6953C235.143 55.8932 235.426 53.8333 235.28 50.5156C235.28 50.4245 235.271 50.2969 235.252 50.1328C234.888 50.3698 234.587 50.543 234.35 50.6523C228.28 53.7513 220.733 56.194 211.709 57.9805V54.5625C221.152 52.0651 228.954 48.5742 235.116 44.0898C235.024 42.7956 234.897 41.7292 234.733 40.8906ZM218.19 20.1094V27.2461H211.983V15.7617H232.655C232.545 14.3034 232.263 12.7448 231.807 11.0859H237.713C237.968 11.6328 238.306 12.3164 238.725 13.1367C239.108 13.8477 239.463 14.7227 239.791 15.7617H255.541C257.018 15.7617 258.103 16.099 258.795 16.7734C259.47 17.4661 259.807 18.5508 259.807 20.0273V27.2461H253.6V20.1094H218.19ZM307.927 27.1094C308.874 31.7943 309.986 35.5768 311.262 38.457C313.414 43.2878 316.54 47.5898 320.641 51.3633C322.847 53.4049 325.937 55.5924 329.911 57.9258V62.3008C325.682 60.4779 322.1 58.4635 319.165 56.2578C313.441 51.9375 309.111 46.9701 306.177 41.3555C305.903 40.8086 305.529 40.0612 305.055 39.1133C303.451 43.1966 301.127 46.8516 298.083 50.0781C293.927 54.4896 289.041 58.0352 283.427 60.7148C282.497 61.1523 281.257 61.7083 279.708 62.3828V58.0078C282.734 56.4036 285.122 54.918 286.872 53.5508C292.067 49.5404 295.859 44.7917 298.247 39.3047C300.143 34.9479 301.091 28.987 301.091 21.4219V11.0586H308.282V21.4492C308.282 23.1628 308.164 25.0495 307.927 27.1094ZM351.78 15.707H390.007C391.629 15.707 392.814 16.0898 393.562 16.8555C394.327 17.6393 394.71 18.8789 394.71 20.5742V58.418H351.78V15.707ZM358.48 20.0547V54.0703H388.011V20.0547H358.48ZM419.095 23.6914H415.65V20.4648H419.095V14.5859H428.009V10.9492H433.587V14.5859H438.482C439.904 14.5859 440.943 14.9141 441.599 15.5703C442.255 16.2266 442.584 17.2656 442.584 18.6875V20.4648H446.74V23.6914H442.584V29.625H433.587V32.1953H440.068C441.49 32.1953 442.529 32.5234 443.185 33.1797C443.841 33.8359 444.17 34.875 444.17 36.2969V42.2305H417.564V32.1953H428.009V29.625H419.095V23.6914ZM433.587 20.4648H437.498V17.5664H433.587V20.4648ZM433.587 23.6914V26.6445H437.498V23.6914H433.587ZM428.009 23.6914H424.181V26.6445H428.009V23.6914ZM428.009 20.4648V17.5664H424.181V20.4648H428.009ZM428.009 35.4219H422.896V39.0039H428.009V35.4219ZM433.587 39.0039H438.837V35.4219H433.587V39.0039ZM449.255 33.5352C448.271 34.9753 446.895 36.5521 445.127 38.2656V33.3984C446.202 31.3932 446.922 29.862 447.287 28.8047C448.581 25.1042 449.456 20.6471 449.912 15.4336C450.021 14.1393 450.14 12.6536 450.267 10.9766H456.064C455.663 14.7865 455.271 17.7578 454.888 19.8906H467.74V24.2383H465.115C464.896 34.9023 463.064 43.1784 459.619 49.0664C461.515 52.0378 464.285 55.0091 467.931 57.9805V62.4648C464.65 60.4414 462.18 58.6641 460.521 57.1328C459.354 56.0573 458.133 54.6992 456.857 53.0586C455.107 55.1367 453.33 56.8594 451.525 58.2266C450.048 59.3568 447.87 60.7148 444.99 62.3008V58.0078C447.524 56.3672 449.538 54.763 451.033 53.1953C452.054 52.1198 453.102 50.7435 454.177 49.0664C451.735 44.6914 450.112 39.651 449.31 33.9453L449.255 33.5352ZM451.908 29.1328H454.123C454.341 34.9115 455.235 39.7513 456.802 43.6523C457.987 40.2617 458.78 36.9167 459.181 33.6172C459.4 31.8854 459.573 29.3516 459.701 26.0156L459.783 24.2383H453.877C453.384 25.8242 452.728 27.4557 451.908 29.1328ZM436.65 55.1641C438.874 55.7656 441.308 56.4492 443.951 57.2148V62.082C441.016 61.0065 438.482 60.0677 436.349 59.2656L432.248 57.707C428.255 59.5664 422.887 61.0339 416.142 62.1094V58.8008C420.298 58.1081 423.917 57.1237 426.998 55.8477C424.591 55.0456 421.684 54.0977 418.275 53.0039C419.715 51.3451 420.845 49.9232 421.666 48.7383H416.005V45.0195H423.826C424.008 44.6185 424.282 43.9714 424.646 43.0781H431.154C430.735 43.8984 430.379 44.5456 430.087 45.0195H443.24V48.4375C441.362 51.099 439.166 53.3411 436.65 55.1641ZM431.209 53.6875C433.05 52.5755 434.882 50.9258 436.705 48.7383H427.162C426.396 49.5404 425.348 50.543 424.017 51.7461L426.56 52.4297L427.572 52.7031L431.209 53.6875ZM521.109 53.3594C518.448 55.237 515.777 56.6953 513.098 57.7344C511.366 58.3906 509.16 59.0651 506.48 59.7578V56.8047C512.423 54.6536 517.135 51.8281 520.617 48.3281C520.581 48.0911 520.499 47.7812 520.371 47.3984C517.491 49.6953 513.526 51.4909 508.477 52.7852V49.9414C510.956 49.0299 513.043 48.0456 514.738 46.9883C515.996 46.2044 517.363 45.138 518.84 43.7891C518.712 43.5885 518.585 43.3971 518.457 43.2148C515.212 44.9648 511.967 46.1862 508.723 46.8789V43.8984C512.405 42.6042 515.13 41.1367 516.898 39.4961H508.914V36.2695H535.492V39.4961H523.543C523.142 39.9154 522.577 40.4076 521.848 40.9727C523.561 42.5404 524.801 44.4453 525.566 46.6875C527.043 45.4661 528.228 43.7891 529.121 41.6562H535.055C533.87 43.8802 532.539 45.6667 531.062 47.0156C531.154 47.3073 531.281 47.7266 531.445 48.2734C532.448 51.6276 534.152 54.7448 536.559 57.625V61.0977C534.116 59.6758 531.992 57.7982 530.188 55.4648C529.331 54.3529 528.264 52.4479 526.988 49.75C526.66 49.9141 526.405 50.0417 526.223 50.1328C526.314 51.1901 526.359 52.2201 526.359 53.2227C526.359 55.8294 526.004 57.7708 525.293 59.0469C524.272 60.8698 522.312 61.7812 519.414 61.7812H515.121L514.137 58.418H518.375C519.633 58.418 520.444 57.7617 520.809 56.4492C520.973 55.9023 521.073 54.8724 521.109 53.3594ZM514.93 28.8867H509.516L508.887 25.6602H514.93V23.1992H507.738V42.5039C507.738 47.3346 507.191 51.026 506.098 53.5781C504.658 56.9141 502.215 59.7214 498.77 62V58.0625C499.991 56.4948 500.848 54.8359 501.34 53.0859C502.051 50.5885 502.406 47.4076 502.406 43.543V19.4805H514.547V10.9766H520.262V13.4922H533.852V16.9648H520.262V19.4805H532.047C533.469 19.4805 534.508 19.8086 535.164 20.4648C535.82 21.1211 536.148 22.1602 536.148 23.582V26.8633H531.062V23.1992H520.262V25.6602H527.727L528.629 28.8867H520.262V31.3203H529.477V28.1758L534.316 29.1602V31.3203C534.316 33.4714 533.204 34.5469 530.98 34.5469H517.992C515.951 34.5469 514.93 33.4714 514.93 31.3203V28.8867ZM490.621 42.5039L484.469 44.6914V38.3477L490.621 37.0898V24.8672H485.016V20.5195H490.621V11.0586H496.09V20.5195H501.039V24.8672H496.09V35.9688L501.012 34.9844V38.8125L496.09 40.5625V56.5039C496.09 58.819 495.452 60.3411 494.176 61.0703C493.41 61.4896 492.234 61.6992 490.648 61.6992H486.246L485.207 57.3789H490.621V42.5039ZM564.745 28.4219V49.0664L570.377 47.9453V52.0195L553.014 57.6523V51.3633L558.537 50.2695V28.4219H553.342V24.0742H558.537V11.0586H564.745V24.0742H570.131V28.4219L573.412 27.3281V16.3086H579.373V25.3867L585.006 23.5547V11.0039H590.967V21.6133L598.487 19.1523C599.179 18.9154 599.745 18.7969 600.182 18.7969C601.021 18.7969 601.75 19.125 602.37 19.7812C602.898 20.3464 603.162 21.3216 603.162 22.707V40.6992C603.162 42.9414 602.506 44.4271 601.194 45.1562C600.337 45.6484 599.015 45.8945 597.229 45.8945H593.209L592.088 41.5469H597.202V24.293L590.967 26.3438V51.0625H585.006V28.2852L579.373 30.1172V56.3945H599.444V48.7383L604.666 50.1875V56.4766C604.666 57.9714 604.329 59.056 603.655 59.7305C602.998 60.4049 601.914 60.7422 600.401 60.7422H577.678C576.183 60.7422 575.099 60.4049 574.424 59.7305C573.75 59.056 573.412 57.9714 573.412 56.4766V32.0586L568.928 33.5352V28.8047L570.104 28.4219H564.745ZM641.63 49.5039V41.3281H650.954C652.121 41.3281 652.968 41.5924 653.497 42.1211C654.044 42.668 654.317 43.5156 654.317 44.6641V49.5039H641.63ZM646.114 46.7695H649.833V44.0625H646.114V46.7695ZM644.856 36.2695V34.0273H631.595V30.5547H644.856V28.668H635.286V19.207H657.106C658.528 19.207 659.567 19.5352 660.223 20.1914C660.88 20.8477 661.208 21.8867 661.208 23.3086V28.668H651.036V30.5547H663.614V34.0273H651.036V36.2695H658.009C659.43 36.2695 660.47 36.5977 661.126 37.2539C661.782 37.9102 662.11 38.9492 662.11 40.3711V54.5352H633.727V36.2695H644.856ZM638.95 39.7422V51.1172H656.888V39.7422H638.95ZM641.247 25.4414H655.247V22.4336H641.247V25.4414ZM624.294 13.082H666.321C668.016 13.082 669.256 13.474 670.04 14.2578C670.805 15.0234 671.188 16.2539 671.188 17.9492V60.8789H624.294V13.082ZM630.501 17.1836V56.7773H664.981V17.1836H630.501Z" fill="black"/>
</svg>
